%TF.GenerationSoftware,KiCad,Pcbnew,8.0.0*%
%TF.CreationDate,2024-03-28T11:43:16-03:00*%
%TF.ProjectId,ponderada_sem6_kicad,706f6e64-6572-4616-9461-5f73656d365f,rev?*%
%TF.SameCoordinates,Original*%
%TF.FileFunction,Copper,L2,Bot*%
%TF.FilePolarity,Positive*%
%FSLAX46Y46*%
G04 Gerber Fmt 4.6, Leading zero omitted, Abs format (unit mm)*
G04 Created by KiCad (PCBNEW 8.0.0) date 2024-03-28 11:43:16*
%MOMM*%
%LPD*%
G01*
G04 APERTURE LIST*
%TA.AperFunction,ComponentPad*%
%ADD10O,1.700000X1.700000*%
%TD*%
%TA.AperFunction,ComponentPad*%
%ADD11R,1.700000X1.700000*%
%TD*%
%TA.AperFunction,ComponentPad*%
%ADD12O,1.400000X1.400000*%
%TD*%
%TA.AperFunction,ComponentPad*%
%ADD13C,1.400000*%
%TD*%
%TA.AperFunction,ComponentPad*%
%ADD14C,1.800000*%
%TD*%
%TA.AperFunction,ComponentPad*%
%ADD15R,1.800000X1.800000*%
%TD*%
%TA.AperFunction,ComponentPad*%
%ADD16O,1.050000X1.500000*%
%TD*%
%TA.AperFunction,ComponentPad*%
%ADD17R,1.050000X1.500000*%
%TD*%
G04 APERTURE END LIST*
D10*
%TO.P,U1,1,GPIO0*%
%TO.N,unconnected-(U1-GPIO0-Pad1)*%
X107220000Y-84240000D03*
%TO.P,U1,2,GPIO1*%
%TO.N,unconnected-(U1-GPIO1-Pad2)*%
X107220000Y-86780000D03*
D11*
%TO.P,U1,3,GND*%
%TO.N,unconnected-(U1-GND-Pad3)*%
X107220000Y-89320000D03*
D10*
%TO.P,U1,4,GPIO2*%
%TO.N,unconnected-(U1-GPIO2-Pad4)*%
X107220000Y-91860000D03*
%TO.P,U1,5,GPIO3*%
%TO.N,unconnected-(U1-GPIO3-Pad5)*%
X107220000Y-94400000D03*
%TO.P,U1,6,GPIO4*%
%TO.N,unconnected-(U1-GPIO4-Pad6)*%
X107220000Y-96940000D03*
%TO.P,U1,7,GPIO5*%
%TO.N,unconnected-(U1-GPIO5-Pad7)*%
X107220000Y-99480000D03*
D11*
%TO.P,U1,8,GND*%
%TO.N,unconnected-(U1-GND-Pad8)*%
X107220000Y-102020000D03*
D10*
%TO.P,U1,9,GPIO6*%
%TO.N,unconnected-(U1-GPIO6-Pad9)*%
X107220000Y-104560000D03*
%TO.P,U1,10,GPIO7*%
%TO.N,unconnected-(U1-GPIO7-Pad10)*%
X107220000Y-107100000D03*
%TO.P,U1,11,GPIO8*%
%TO.N,unconnected-(U1-GPIO8-Pad11)*%
X107220000Y-109640000D03*
%TO.P,U1,12,GPIO9*%
%TO.N,unconnected-(U1-GPIO9-Pad12)*%
X107220000Y-112180000D03*
D11*
%TO.P,U1,13,GND*%
%TO.N,unconnected-(U1-GND-Pad13)*%
X107220000Y-114720000D03*
D10*
%TO.P,U1,14,GPIO10*%
%TO.N,unconnected-(U1-GPIO10-Pad14)*%
X107220000Y-117260000D03*
%TO.P,U1,15,GPIO11*%
%TO.N,unconnected-(U1-GPIO11-Pad15)*%
X107220000Y-119800000D03*
%TO.P,U1,16,GPIO12*%
%TO.N,unconnected-(U1-GPIO12-Pad16)*%
X107220000Y-122340000D03*
%TO.P,U1,17,GPIO13*%
%TO.N,unconnected-(U1-GPIO13-Pad17)*%
X107220000Y-124880000D03*
D11*
%TO.P,U1,18,GND*%
%TO.N,unconnected-(U1-GND-Pad18)*%
X107220000Y-127420000D03*
D10*
%TO.P,U1,19,GPIO14*%
%TO.N,unconnected-(U1-GPIO14-Pad19)*%
X107220000Y-129960000D03*
%TO.P,U1,20,GPIO15*%
%TO.N,unconnected-(U1-GPIO15-Pad20)*%
X107220000Y-132500000D03*
%TO.P,U1,21,GPIO16*%
%TO.N,unconnected-(U1-GPIO16-Pad21)*%
X125000000Y-132500000D03*
%TO.P,U1,22,GPIO17*%
%TO.N,unconnected-(U1-GPIO17-Pad22)*%
X125000000Y-129960000D03*
D11*
%TO.P,U1,23,GND*%
%TO.N,unconnected-(U1-GND-Pad23)*%
X125000000Y-127420000D03*
D10*
%TO.P,U1,24,GPIO18*%
%TO.N,unconnected-(U1-GPIO18-Pad24)*%
X125000000Y-124880000D03*
%TO.P,U1,25,GPIO19*%
%TO.N,unconnected-(U1-GPIO19-Pad25)*%
X125000000Y-122340000D03*
%TO.P,U1,26,GPIO20*%
%TO.N,unconnected-(U1-GPIO20-Pad26)*%
X125000000Y-119800000D03*
%TO.P,U1,27,GPIO21*%
%TO.N,Net-(U1-GPIO21)*%
X125000000Y-117260000D03*
D11*
%TO.P,U1,28,GND*%
%TO.N,GND*%
X125000000Y-114720000D03*
D10*
%TO.P,U1,29,GPIO22*%
%TO.N,unconnected-(U1-GPIO22-Pad29)*%
X125000000Y-112180000D03*
%TO.P,U1,30,RUN*%
%TO.N,unconnected-(U1-RUN-Pad30)*%
X125000000Y-109640000D03*
%TO.P,U1,31,GPIO26_ADC0*%
%TO.N,unconnected-(U1-GPIO26_ADC0-Pad31)*%
X125000000Y-107100000D03*
%TO.P,U1,32,GPIO27_ADC1*%
%TO.N,unconnected-(U1-GPIO27_ADC1-Pad32)*%
X125000000Y-104560000D03*
D11*
%TO.P,U1,33,AGND*%
%TO.N,unconnected-(U1-AGND-Pad33)*%
X125000000Y-102020000D03*
D10*
%TO.P,U1,34,GPIO28_ADC2*%
%TO.N,unconnected-(U1-GPIO28_ADC2-Pad34)*%
X125000000Y-99480000D03*
%TO.P,U1,35,ADC_VREF*%
%TO.N,unconnected-(U1-ADC_VREF-Pad35)*%
X125000000Y-96940000D03*
%TO.P,U1,36,3V3*%
%TO.N,unconnected-(U1-3V3-Pad36)*%
X125000000Y-94400000D03*
%TO.P,U1,37,3V3_EN*%
%TO.N,3v3*%
X125000000Y-91860000D03*
D11*
%TO.P,U1,38,GND*%
%TO.N,unconnected-(U1-GND-Pad38)*%
X125000000Y-89320000D03*
D10*
%TO.P,U1,39,VSYS*%
%TO.N,VCC*%
X125000000Y-86780000D03*
%TO.P,U1,40,VBUS*%
%TO.N,unconnected-(U1-VBUS-Pad40)*%
X125000000Y-84240000D03*
%TO.P,U1,41,SWCLK*%
%TO.N,unconnected-(U1-SWCLK-Pad41)*%
X113570000Y-132270000D03*
D11*
%TO.P,U1,42,GND*%
%TO.N,unconnected-(U1-GND-Pad42)*%
X116110000Y-132270000D03*
D10*
%TO.P,U1,43,SWDIO*%
%TO.N,unconnected-(U1-SWDIO-Pad43)*%
X118650000Y-132270000D03*
%TD*%
D12*
%TO.P,R3,2*%
%TO.N,3v3*%
X143090000Y-96000000D03*
D13*
%TO.P,R3,1*%
%TO.N,Net-(Q1-E)*%
X138010000Y-96000000D03*
%TD*%
D12*
%TO.P,R2,2*%
%TO.N,Net-(Q1-C)*%
X143000000Y-109910000D03*
D13*
%TO.P,R2,1*%
%TO.N,Net-(D2-K)*%
X143000000Y-114990000D03*
%TD*%
D12*
%TO.P,R1,2*%
%TO.N,Net-(Q1-B)*%
X138000000Y-109910000D03*
D13*
%TO.P,R1,1*%
%TO.N,Net-(U1-GPIO21)*%
X138000000Y-114990000D03*
%TD*%
D14*
%TO.P,D2,2,A*%
%TO.N,3v3*%
X142675000Y-123290000D03*
D15*
%TO.P,D2,1,K*%
%TO.N,Net-(D2-K)*%
X142675000Y-120750000D03*
%TD*%
D16*
%TO.P,Q1,3,E*%
%TO.N,GND*%
X139460000Y-103780000D03*
%TO.P,Q1,2,B*%
%TO.N,Net-(Q1-B)*%
X140730000Y-103780000D03*
D17*
%TO.P,Q1,1,C*%
%TO.N,Net-(Q1-C)*%
X142000000Y-103780000D03*
%TD*%
M02*
