%TF.GenerationSoftware,KiCad,Pcbnew,8.0.0*%
%TF.CreationDate,2024-03-28T10:41:24-03:00*%
%TF.ProjectId,ponderada_sem6_kicad,706f6e64-6572-4616-9461-5f73656d365f,rev?*%
%TF.SameCoordinates,Original*%
%TF.FileFunction,Soldermask,Top*%
%TF.FilePolarity,Negative*%
%FSLAX46Y46*%
G04 Gerber Fmt 4.6, Leading zero omitted, Abs format (unit mm)*
G04 Created by KiCad (PCBNEW 8.0.0) date 2024-03-28 10:41:24*
%MOMM*%
%LPD*%
G01*
G04 APERTURE LIST*
%ADD10O,1.800000X1.800000*%
%ADD11O,1.500000X1.500000*%
%ADD12O,1.700000X1.700000*%
%ADD13R,3.500000X1.700000*%
%ADD14R,1.700000X1.700000*%
%ADD15R,1.700000X3.500000*%
%ADD16O,1.400000X1.400000*%
%ADD17C,1.400000*%
%ADD18C,1.800000*%
%ADD19R,1.800000X1.800000*%
%ADD20O,1.050000X1.500000*%
%ADD21R,1.050000X1.500000*%
G04 APERTURE END LIST*
D10*
%TO.C,U1*%
X118835000Y-84370000D03*
X113385000Y-84370000D03*
D11*
X113685000Y-87400000D03*
X118535000Y-87400000D03*
D12*
X107220000Y-84240000D03*
D13*
X106320000Y-84240000D03*
D12*
X107220000Y-86780000D03*
D13*
X106320000Y-86780000D03*
X106320000Y-89320000D03*
D14*
X107220000Y-89320000D03*
D12*
X107220000Y-91860000D03*
D13*
X106320000Y-91860000D03*
D12*
X107220000Y-94400000D03*
D13*
X106320000Y-94400000D03*
D12*
X107220000Y-96940000D03*
D13*
X106320000Y-96940000D03*
X106320000Y-99480000D03*
D12*
X107220000Y-99480000D03*
D14*
X107220000Y-102020000D03*
D13*
X106320000Y-102020000D03*
X106320000Y-104560000D03*
D12*
X107220000Y-104560000D03*
X107220000Y-107100000D03*
D13*
X106320000Y-107100000D03*
X106320000Y-109640000D03*
D12*
X107220000Y-109640000D03*
X107220000Y-112180000D03*
D13*
X106320000Y-112180000D03*
D14*
X107220000Y-114720000D03*
D13*
X106320000Y-114720000D03*
X106320000Y-117260000D03*
D12*
X107220000Y-117260000D03*
X107220000Y-119800000D03*
D13*
X106320000Y-119800000D03*
X106320000Y-122340000D03*
D12*
X107220000Y-122340000D03*
D13*
X106320000Y-124880000D03*
D12*
X107220000Y-124880000D03*
D13*
X106320000Y-127420000D03*
D14*
X107220000Y-127420000D03*
D12*
X107220000Y-129960000D03*
D13*
X106320000Y-129960000D03*
X106320000Y-132500000D03*
D12*
X107220000Y-132500000D03*
D13*
X125900000Y-132500000D03*
D12*
X125000000Y-132500000D03*
D13*
X125900000Y-129960000D03*
D12*
X125000000Y-129960000D03*
D13*
X125900000Y-127420000D03*
D14*
X125000000Y-127420000D03*
D12*
X125000000Y-124880000D03*
D13*
X125900000Y-124880000D03*
X125900000Y-122340000D03*
D12*
X125000000Y-122340000D03*
D13*
X125900000Y-119800000D03*
D12*
X125000000Y-119800000D03*
X125000000Y-117260000D03*
D13*
X125900000Y-117260000D03*
D14*
X125000000Y-114720000D03*
D13*
X125900000Y-114720000D03*
D12*
X125000000Y-112180000D03*
D13*
X125900000Y-112180000D03*
X125900000Y-109640000D03*
D12*
X125000000Y-109640000D03*
X125000000Y-107100000D03*
D13*
X125900000Y-107100000D03*
D12*
X125000000Y-104560000D03*
D13*
X125900000Y-104560000D03*
X125900000Y-102020000D03*
D14*
X125000000Y-102020000D03*
D13*
X125900000Y-99480000D03*
D12*
X125000000Y-99480000D03*
D13*
X125900000Y-96940000D03*
D12*
X125000000Y-96940000D03*
X125000000Y-94400000D03*
D13*
X125900000Y-94400000D03*
X125900000Y-91860000D03*
D12*
X125000000Y-91860000D03*
D13*
X125900000Y-89320000D03*
D14*
X125000000Y-89320000D03*
D13*
X125900000Y-86780000D03*
D12*
X125000000Y-86780000D03*
X125000000Y-84240000D03*
D13*
X125900000Y-84240000D03*
D15*
X113570000Y-133170000D03*
D12*
X113570000Y-132270000D03*
D14*
X116110000Y-132270000D03*
D15*
X116110000Y-133170000D03*
D12*
X118650000Y-132270000D03*
D15*
X118650000Y-133170000D03*
%TD*%
D16*
%TO.C,R3*%
X143090000Y-96000000D03*
D17*
X138010000Y-96000000D03*
%TD*%
D16*
%TO.C,R2*%
X143000000Y-109910000D03*
D17*
X143000000Y-114990000D03*
%TD*%
D16*
%TO.C,R1*%
X138000000Y-109910000D03*
D17*
X138000000Y-114990000D03*
%TD*%
D18*
%TO.C,D2*%
X142675000Y-123290000D03*
D19*
X142675000Y-120750000D03*
%TD*%
D20*
%TO.C,Q1*%
X139460000Y-103780000D03*
X140730000Y-103780000D03*
D21*
X142000000Y-103780000D03*
%TD*%
M02*
