%TF.GenerationSoftware,KiCad,Pcbnew,8.0.0*%
%TF.CreationDate,2024-03-28T10:41:24-03:00*%
%TF.ProjectId,ponderada_sem6_kicad,706f6e64-6572-4616-9461-5f73656d365f,rev?*%
%TF.SameCoordinates,Original*%
%TF.FileFunction,Legend,Top*%
%TF.FilePolarity,Positive*%
%FSLAX46Y46*%
G04 Gerber Fmt 4.6, Leading zero omitted, Abs format (unit mm)*
G04 Created by KiCad (PCBNEW 8.0.0) date 2024-03-28 10:41:24*
%MOMM*%
%LPD*%
G01*
G04 APERTURE LIST*
%ADD10C,0.150000*%
%ADD11C,0.120000*%
G04 APERTURE END LIST*
D10*
X115348095Y-107824819D02*
X115348095Y-108634342D01*
X115348095Y-108634342D02*
X115395714Y-108729580D01*
X115395714Y-108729580D02*
X115443333Y-108777200D01*
X115443333Y-108777200D02*
X115538571Y-108824819D01*
X115538571Y-108824819D02*
X115729047Y-108824819D01*
X115729047Y-108824819D02*
X115824285Y-108777200D01*
X115824285Y-108777200D02*
X115871904Y-108729580D01*
X115871904Y-108729580D02*
X115919523Y-108634342D01*
X115919523Y-108634342D02*
X115919523Y-107824819D01*
X116919523Y-108824819D02*
X116348095Y-108824819D01*
X116633809Y-108824819D02*
X116633809Y-107824819D01*
X116633809Y-107824819D02*
X116538571Y-107967676D01*
X116538571Y-107967676D02*
X116443333Y-108062914D01*
X116443333Y-108062914D02*
X116348095Y-108110533D01*
X101953998Y-120190868D02*
X101873185Y-120217805D01*
X101873185Y-120217805D02*
X101792373Y-120298618D01*
X101792373Y-120298618D02*
X101738498Y-120406367D01*
X101738498Y-120406367D02*
X101738498Y-120514117D01*
X101738498Y-120514117D02*
X101765436Y-120594929D01*
X101765436Y-120594929D02*
X101846248Y-120729616D01*
X101846248Y-120729616D02*
X101927060Y-120810428D01*
X101927060Y-120810428D02*
X102061747Y-120891241D01*
X102061747Y-120891241D02*
X102142560Y-120918178D01*
X102142560Y-120918178D02*
X102250309Y-120918178D01*
X102250309Y-120918178D02*
X102358059Y-120864303D01*
X102358059Y-120864303D02*
X102411934Y-120810428D01*
X102411934Y-120810428D02*
X102465808Y-120702679D01*
X102465808Y-120702679D02*
X102465808Y-120648804D01*
X102465808Y-120648804D02*
X102277247Y-120460242D01*
X102277247Y-120460242D02*
X102169497Y-120567992D01*
X102762120Y-120460242D02*
X102196434Y-119894557D01*
X102196434Y-119894557D02*
X102411934Y-119679057D01*
X102411934Y-119679057D02*
X102492746Y-119652120D01*
X102492746Y-119652120D02*
X102546621Y-119652120D01*
X102546621Y-119652120D02*
X102627433Y-119679057D01*
X102627433Y-119679057D02*
X102708245Y-119759870D01*
X102708245Y-119759870D02*
X102735182Y-119840682D01*
X102735182Y-119840682D02*
X102735182Y-119894557D01*
X102735182Y-119894557D02*
X102708245Y-119975369D01*
X102708245Y-119975369D02*
X102492746Y-120190868D01*
X103624117Y-119598245D02*
X103300868Y-119921494D01*
X103462492Y-119759870D02*
X102896807Y-119194184D01*
X102896807Y-119194184D02*
X102923744Y-119328871D01*
X102923744Y-119328871D02*
X102923744Y-119436621D01*
X102923744Y-119436621D02*
X102896807Y-119517433D01*
X104162865Y-119059497D02*
X103839616Y-119382746D01*
X104001240Y-119221121D02*
X103435555Y-118655436D01*
X103435555Y-118655436D02*
X103462492Y-118790123D01*
X103462492Y-118790123D02*
X103462492Y-118897873D01*
X103462492Y-118897873D02*
X103435555Y-118978685D01*
X128261873Y-103111240D02*
X128531247Y-102841866D01*
X128369623Y-103326739D02*
X127992499Y-102572492D01*
X127992499Y-102572492D02*
X128746746Y-102949615D01*
X128692871Y-101925994D02*
X128612059Y-101952932D01*
X128612059Y-101952932D02*
X128531247Y-102033744D01*
X128531247Y-102033744D02*
X128477372Y-102141494D01*
X128477372Y-102141494D02*
X128477372Y-102249243D01*
X128477372Y-102249243D02*
X128504310Y-102330055D01*
X128504310Y-102330055D02*
X128585122Y-102464742D01*
X128585122Y-102464742D02*
X128665934Y-102545555D01*
X128665934Y-102545555D02*
X128800621Y-102626367D01*
X128800621Y-102626367D02*
X128881433Y-102653304D01*
X128881433Y-102653304D02*
X128989183Y-102653304D01*
X128989183Y-102653304D02*
X129096932Y-102599429D01*
X129096932Y-102599429D02*
X129150807Y-102545555D01*
X129150807Y-102545555D02*
X129204682Y-102437805D01*
X129204682Y-102437805D02*
X129204682Y-102383930D01*
X129204682Y-102383930D02*
X129016120Y-102195368D01*
X129016120Y-102195368D02*
X128908371Y-102303118D01*
X129500993Y-102195368D02*
X128935308Y-101629683D01*
X128935308Y-101629683D02*
X129824242Y-101872120D01*
X129824242Y-101872120D02*
X129258557Y-101306434D01*
X130093616Y-101602746D02*
X129527931Y-101037060D01*
X129527931Y-101037060D02*
X129662618Y-100902373D01*
X129662618Y-100902373D02*
X129770367Y-100848498D01*
X129770367Y-100848498D02*
X129878117Y-100848498D01*
X129878117Y-100848498D02*
X129958929Y-100875436D01*
X129958929Y-100875436D02*
X130093616Y-100956248D01*
X130093616Y-100956248D02*
X130174428Y-101037060D01*
X130174428Y-101037060D02*
X130255241Y-101171747D01*
X130255241Y-101171747D02*
X130282178Y-101252560D01*
X130282178Y-101252560D02*
X130282178Y-101360309D01*
X130282178Y-101360309D02*
X130228303Y-101468059D01*
X130228303Y-101468059D02*
X130093616Y-101602746D01*
X128196435Y-127568431D02*
X128115623Y-127595368D01*
X128115623Y-127595368D02*
X128034811Y-127676180D01*
X128034811Y-127676180D02*
X127980936Y-127783930D01*
X127980936Y-127783930D02*
X127980936Y-127891680D01*
X127980936Y-127891680D02*
X128007873Y-127972492D01*
X128007873Y-127972492D02*
X128088685Y-128107179D01*
X128088685Y-128107179D02*
X128169498Y-128187991D01*
X128169498Y-128187991D02*
X128304185Y-128268803D01*
X128304185Y-128268803D02*
X128384997Y-128295741D01*
X128384997Y-128295741D02*
X128492746Y-128295741D01*
X128492746Y-128295741D02*
X128600496Y-128241866D01*
X128600496Y-128241866D02*
X128654371Y-128187991D01*
X128654371Y-128187991D02*
X128708246Y-128080241D01*
X128708246Y-128080241D02*
X128708246Y-128026367D01*
X128708246Y-128026367D02*
X128519684Y-127837805D01*
X128519684Y-127837805D02*
X128411934Y-127945554D01*
X129004557Y-127837805D02*
X128438872Y-127272119D01*
X128438872Y-127272119D02*
X129327806Y-127514556D01*
X129327806Y-127514556D02*
X128762120Y-126948871D01*
X129597180Y-127245182D02*
X129031494Y-126679497D01*
X129031494Y-126679497D02*
X129166181Y-126544810D01*
X129166181Y-126544810D02*
X129273931Y-126490935D01*
X129273931Y-126490935D02*
X129381680Y-126490935D01*
X129381680Y-126490935D02*
X129462493Y-126517872D01*
X129462493Y-126517872D02*
X129597180Y-126598685D01*
X129597180Y-126598685D02*
X129677992Y-126679497D01*
X129677992Y-126679497D02*
X129758804Y-126814184D01*
X129758804Y-126814184D02*
X129785741Y-126894996D01*
X129785741Y-126894996D02*
X129785741Y-127002746D01*
X129785741Y-127002746D02*
X129731867Y-127110495D01*
X129731867Y-127110495D02*
X129597180Y-127245182D01*
X128063406Y-84897585D02*
X128817653Y-85274709D01*
X128817653Y-85274709D02*
X128440529Y-84520462D01*
X129087027Y-84412712D02*
X129194776Y-84358838D01*
X129194776Y-84358838D02*
X129248651Y-84358838D01*
X129248651Y-84358838D02*
X129329463Y-84385775D01*
X129329463Y-84385775D02*
X129410276Y-84466587D01*
X129410276Y-84466587D02*
X129437213Y-84547399D01*
X129437213Y-84547399D02*
X129437213Y-84601274D01*
X129437213Y-84601274D02*
X129410276Y-84682086D01*
X129410276Y-84682086D02*
X129194776Y-84897586D01*
X129194776Y-84897586D02*
X128629091Y-84331900D01*
X128629091Y-84331900D02*
X128817653Y-84143338D01*
X128817653Y-84143338D02*
X128898465Y-84116401D01*
X128898465Y-84116401D02*
X128952340Y-84116401D01*
X128952340Y-84116401D02*
X129033152Y-84143338D01*
X129033152Y-84143338D02*
X129087027Y-84197213D01*
X129087027Y-84197213D02*
X129113964Y-84278025D01*
X129113964Y-84278025D02*
X129113964Y-84331900D01*
X129113964Y-84331900D02*
X129087027Y-84412712D01*
X129087027Y-84412712D02*
X128898465Y-84601274D01*
X129194776Y-83766215D02*
X129652712Y-84224151D01*
X129652712Y-84224151D02*
X129733524Y-84251088D01*
X129733524Y-84251088D02*
X129787399Y-84251088D01*
X129787399Y-84251088D02*
X129868211Y-84224151D01*
X129868211Y-84224151D02*
X129975961Y-84116401D01*
X129975961Y-84116401D02*
X130002898Y-84035589D01*
X130002898Y-84035589D02*
X130002898Y-83981714D01*
X130002898Y-83981714D02*
X129975961Y-83900902D01*
X129975961Y-83900902D02*
X129518025Y-83442966D01*
X130299210Y-83739277D02*
X130406959Y-83685403D01*
X130406959Y-83685403D02*
X130541646Y-83550716D01*
X130541646Y-83550716D02*
X130568584Y-83469903D01*
X130568584Y-83469903D02*
X130568584Y-83416029D01*
X130568584Y-83416029D02*
X130541646Y-83335216D01*
X130541646Y-83335216D02*
X130487771Y-83281342D01*
X130487771Y-83281342D02*
X130406959Y-83254404D01*
X130406959Y-83254404D02*
X130353084Y-83254404D01*
X130353084Y-83254404D02*
X130272272Y-83281342D01*
X130272272Y-83281342D02*
X130137585Y-83362154D01*
X130137585Y-83362154D02*
X130056773Y-83389091D01*
X130056773Y-83389091D02*
X130002898Y-83389091D01*
X130002898Y-83389091D02*
X129922086Y-83362154D01*
X129922086Y-83362154D02*
X129868211Y-83308279D01*
X129868211Y-83308279D02*
X129841274Y-83227467D01*
X129841274Y-83227467D02*
X129841274Y-83173592D01*
X129841274Y-83173592D02*
X129868211Y-83092780D01*
X129868211Y-83092780D02*
X130002898Y-82958093D01*
X130002898Y-82958093D02*
X130110648Y-82904218D01*
X128196435Y-89468431D02*
X128115623Y-89495368D01*
X128115623Y-89495368D02*
X128034811Y-89576180D01*
X128034811Y-89576180D02*
X127980936Y-89683930D01*
X127980936Y-89683930D02*
X127980936Y-89791680D01*
X127980936Y-89791680D02*
X128007873Y-89872492D01*
X128007873Y-89872492D02*
X128088685Y-90007179D01*
X128088685Y-90007179D02*
X128169498Y-90087991D01*
X128169498Y-90087991D02*
X128304185Y-90168803D01*
X128304185Y-90168803D02*
X128384997Y-90195741D01*
X128384997Y-90195741D02*
X128492746Y-90195741D01*
X128492746Y-90195741D02*
X128600496Y-90141866D01*
X128600496Y-90141866D02*
X128654371Y-90087991D01*
X128654371Y-90087991D02*
X128708246Y-89980241D01*
X128708246Y-89980241D02*
X128708246Y-89926367D01*
X128708246Y-89926367D02*
X128519684Y-89737805D01*
X128519684Y-89737805D02*
X128411934Y-89845554D01*
X129004557Y-89737805D02*
X128438872Y-89172119D01*
X128438872Y-89172119D02*
X129327806Y-89414556D01*
X129327806Y-89414556D02*
X128762120Y-88848871D01*
X129597180Y-89145182D02*
X129031494Y-88579497D01*
X129031494Y-88579497D02*
X129166181Y-88444810D01*
X129166181Y-88444810D02*
X129273931Y-88390935D01*
X129273931Y-88390935D02*
X129381680Y-88390935D01*
X129381680Y-88390935D02*
X129462493Y-88417872D01*
X129462493Y-88417872D02*
X129597180Y-88498685D01*
X129597180Y-88498685D02*
X129677992Y-88579497D01*
X129677992Y-88579497D02*
X129758804Y-88714184D01*
X129758804Y-88714184D02*
X129785741Y-88794996D01*
X129785741Y-88794996D02*
X129785741Y-88902746D01*
X129785741Y-88902746D02*
X129731867Y-89010495D01*
X129731867Y-89010495D02*
X129597180Y-89145182D01*
X102099998Y-125270868D02*
X102019185Y-125297805D01*
X102019185Y-125297805D02*
X101938373Y-125378618D01*
X101938373Y-125378618D02*
X101884498Y-125486367D01*
X101884498Y-125486367D02*
X101884498Y-125594117D01*
X101884498Y-125594117D02*
X101911436Y-125674929D01*
X101911436Y-125674929D02*
X101992248Y-125809616D01*
X101992248Y-125809616D02*
X102073060Y-125890428D01*
X102073060Y-125890428D02*
X102207747Y-125971241D01*
X102207747Y-125971241D02*
X102288560Y-125998178D01*
X102288560Y-125998178D02*
X102396309Y-125998178D01*
X102396309Y-125998178D02*
X102504059Y-125944303D01*
X102504059Y-125944303D02*
X102557934Y-125890428D01*
X102557934Y-125890428D02*
X102611808Y-125782679D01*
X102611808Y-125782679D02*
X102611808Y-125728804D01*
X102611808Y-125728804D02*
X102423247Y-125540242D01*
X102423247Y-125540242D02*
X102315497Y-125647992D01*
X102908120Y-125540242D02*
X102342434Y-124974557D01*
X102342434Y-124974557D02*
X102557934Y-124759057D01*
X102557934Y-124759057D02*
X102638746Y-124732120D01*
X102638746Y-124732120D02*
X102692621Y-124732120D01*
X102692621Y-124732120D02*
X102773433Y-124759057D01*
X102773433Y-124759057D02*
X102854245Y-124839870D01*
X102854245Y-124839870D02*
X102881182Y-124920682D01*
X102881182Y-124920682D02*
X102881182Y-124974557D01*
X102881182Y-124974557D02*
X102854245Y-125055369D01*
X102854245Y-125055369D02*
X102638746Y-125270868D01*
X103770117Y-124678245D02*
X103446868Y-125001494D01*
X103608492Y-124839870D02*
X103042807Y-124274184D01*
X103042807Y-124274184D02*
X103069744Y-124408871D01*
X103069744Y-124408871D02*
X103069744Y-124516621D01*
X103069744Y-124516621D02*
X103042807Y-124597433D01*
X103392993Y-123923998D02*
X103743179Y-123573812D01*
X103743179Y-123573812D02*
X103770117Y-123977873D01*
X103770117Y-123977873D02*
X103850929Y-123897060D01*
X103850929Y-123897060D02*
X103931741Y-123870123D01*
X103931741Y-123870123D02*
X103985616Y-123870123D01*
X103985616Y-123870123D02*
X104066428Y-123897060D01*
X104066428Y-123897060D02*
X104201115Y-124031747D01*
X104201115Y-124031747D02*
X104228053Y-124112560D01*
X104228053Y-124112560D02*
X104228053Y-124166434D01*
X104228053Y-124166434D02*
X104201115Y-124247247D01*
X104201115Y-124247247D02*
X104039491Y-124408871D01*
X104039491Y-124408871D02*
X103958679Y-124435808D01*
X103958679Y-124435808D02*
X103904804Y-124435808D01*
X128265064Y-97904049D02*
X128534438Y-97634675D01*
X128372813Y-98119549D02*
X127995690Y-97365301D01*
X127995690Y-97365301D02*
X128749937Y-97742425D01*
X128938499Y-97553863D02*
X128372813Y-96988178D01*
X128372813Y-96988178D02*
X128507500Y-96853491D01*
X128507500Y-96853491D02*
X128615250Y-96799616D01*
X128615250Y-96799616D02*
X128722999Y-96799616D01*
X128722999Y-96799616D02*
X128803812Y-96826553D01*
X128803812Y-96826553D02*
X128938499Y-96907366D01*
X128938499Y-96907366D02*
X129019311Y-96988178D01*
X129019311Y-96988178D02*
X129100123Y-97122865D01*
X129100123Y-97122865D02*
X129127060Y-97203677D01*
X129127060Y-97203677D02*
X129127060Y-97311427D01*
X129127060Y-97311427D02*
X129073186Y-97419176D01*
X129073186Y-97419176D02*
X128938499Y-97553863D01*
X129773558Y-96611054D02*
X129773558Y-96664929D01*
X129773558Y-96664929D02*
X129719683Y-96772679D01*
X129719683Y-96772679D02*
X129665808Y-96826553D01*
X129665808Y-96826553D02*
X129558059Y-96880428D01*
X129558059Y-96880428D02*
X129450309Y-96880428D01*
X129450309Y-96880428D02*
X129369497Y-96853491D01*
X129369497Y-96853491D02*
X129234810Y-96772679D01*
X129234810Y-96772679D02*
X129153998Y-96691866D01*
X129153998Y-96691866D02*
X129073186Y-96557179D01*
X129073186Y-96557179D02*
X129046248Y-96476367D01*
X129046248Y-96476367D02*
X129046248Y-96368618D01*
X129046248Y-96368618D02*
X129100123Y-96260868D01*
X129100123Y-96260868D02*
X129153998Y-96206993D01*
X129153998Y-96206993D02*
X129261747Y-96153118D01*
X129261747Y-96153118D02*
X129315622Y-96153118D01*
X129989057Y-96611054D02*
X130420056Y-96180056D01*
X129854370Y-95506621D02*
X130608618Y-95883744D01*
X130608618Y-95883744D02*
X130231494Y-95129497D01*
X131308990Y-95183372D02*
X130851054Y-95102560D01*
X130985741Y-95506621D02*
X130420056Y-94940935D01*
X130420056Y-94940935D02*
X130635555Y-94725436D01*
X130635555Y-94725436D02*
X130716367Y-94698499D01*
X130716367Y-94698499D02*
X130770242Y-94698499D01*
X130770242Y-94698499D02*
X130851054Y-94725436D01*
X130851054Y-94725436D02*
X130931866Y-94806248D01*
X130931866Y-94806248D02*
X130958804Y-94887061D01*
X130958804Y-94887061D02*
X130958804Y-94940935D01*
X130958804Y-94940935D02*
X130931866Y-95021748D01*
X130931866Y-95021748D02*
X130716367Y-95237247D01*
X131255115Y-94644624D02*
X131443677Y-94456062D01*
X131820800Y-94671561D02*
X131551426Y-94940935D01*
X131551426Y-94940935D02*
X130985741Y-94375250D01*
X130985741Y-94375250D02*
X131255115Y-94105876D01*
X131955488Y-93944251D02*
X131766926Y-94132813D01*
X132063237Y-94429125D02*
X131497552Y-93863439D01*
X131497552Y-93863439D02*
X131766926Y-93594065D01*
X102623372Y-97061494D02*
X102542560Y-97088431D01*
X102542560Y-97088431D02*
X102461748Y-97169243D01*
X102461748Y-97169243D02*
X102407873Y-97276993D01*
X102407873Y-97276993D02*
X102407873Y-97384742D01*
X102407873Y-97384742D02*
X102434810Y-97465555D01*
X102434810Y-97465555D02*
X102515623Y-97600242D01*
X102515623Y-97600242D02*
X102596435Y-97681054D01*
X102596435Y-97681054D02*
X102731122Y-97761866D01*
X102731122Y-97761866D02*
X102811934Y-97788803D01*
X102811934Y-97788803D02*
X102919684Y-97788803D01*
X102919684Y-97788803D02*
X103027433Y-97734929D01*
X103027433Y-97734929D02*
X103081308Y-97681054D01*
X103081308Y-97681054D02*
X103135183Y-97573304D01*
X103135183Y-97573304D02*
X103135183Y-97519429D01*
X103135183Y-97519429D02*
X102946621Y-97330868D01*
X102946621Y-97330868D02*
X102838871Y-97438617D01*
X103431494Y-97330868D02*
X102865809Y-96765182D01*
X102865809Y-96765182D02*
X103081308Y-96549683D01*
X103081308Y-96549683D02*
X103162120Y-96522746D01*
X103162120Y-96522746D02*
X103215995Y-96522746D01*
X103215995Y-96522746D02*
X103296807Y-96549683D01*
X103296807Y-96549683D02*
X103377619Y-96630495D01*
X103377619Y-96630495D02*
X103404557Y-96711307D01*
X103404557Y-96711307D02*
X103404557Y-96765182D01*
X103404557Y-96765182D02*
X103377619Y-96845994D01*
X103377619Y-96845994D02*
X103162120Y-97061494D01*
X103862493Y-96145622D02*
X104239616Y-96522746D01*
X103512306Y-96064810D02*
X103781680Y-96603558D01*
X103781680Y-96603558D02*
X104131867Y-96253372D01*
X102723372Y-107191494D02*
X102642560Y-107218431D01*
X102642560Y-107218431D02*
X102561748Y-107299243D01*
X102561748Y-107299243D02*
X102507873Y-107406993D01*
X102507873Y-107406993D02*
X102507873Y-107514742D01*
X102507873Y-107514742D02*
X102534810Y-107595555D01*
X102534810Y-107595555D02*
X102615623Y-107730242D01*
X102615623Y-107730242D02*
X102696435Y-107811054D01*
X102696435Y-107811054D02*
X102831122Y-107891866D01*
X102831122Y-107891866D02*
X102911934Y-107918803D01*
X102911934Y-107918803D02*
X103019684Y-107918803D01*
X103019684Y-107918803D02*
X103127433Y-107864929D01*
X103127433Y-107864929D02*
X103181308Y-107811054D01*
X103181308Y-107811054D02*
X103235183Y-107703304D01*
X103235183Y-107703304D02*
X103235183Y-107649429D01*
X103235183Y-107649429D02*
X103046621Y-107460868D01*
X103046621Y-107460868D02*
X102938871Y-107568617D01*
X103531494Y-107460868D02*
X102965809Y-106895182D01*
X102965809Y-106895182D02*
X103181308Y-106679683D01*
X103181308Y-106679683D02*
X103262120Y-106652746D01*
X103262120Y-106652746D02*
X103315995Y-106652746D01*
X103315995Y-106652746D02*
X103396807Y-106679683D01*
X103396807Y-106679683D02*
X103477619Y-106760495D01*
X103477619Y-106760495D02*
X103504557Y-106841307D01*
X103504557Y-106841307D02*
X103504557Y-106895182D01*
X103504557Y-106895182D02*
X103477619Y-106975994D01*
X103477619Y-106975994D02*
X103262120Y-107191494D01*
X103477619Y-106383372D02*
X103854743Y-106006248D01*
X103854743Y-106006248D02*
X104177992Y-106814370D01*
X102099998Y-132890868D02*
X102019185Y-132917805D01*
X102019185Y-132917805D02*
X101938373Y-132998618D01*
X101938373Y-132998618D02*
X101884498Y-133106367D01*
X101884498Y-133106367D02*
X101884498Y-133214117D01*
X101884498Y-133214117D02*
X101911436Y-133294929D01*
X101911436Y-133294929D02*
X101992248Y-133429616D01*
X101992248Y-133429616D02*
X102073060Y-133510428D01*
X102073060Y-133510428D02*
X102207747Y-133591241D01*
X102207747Y-133591241D02*
X102288560Y-133618178D01*
X102288560Y-133618178D02*
X102396309Y-133618178D01*
X102396309Y-133618178D02*
X102504059Y-133564303D01*
X102504059Y-133564303D02*
X102557934Y-133510428D01*
X102557934Y-133510428D02*
X102611808Y-133402679D01*
X102611808Y-133402679D02*
X102611808Y-133348804D01*
X102611808Y-133348804D02*
X102423247Y-133160242D01*
X102423247Y-133160242D02*
X102315497Y-133267992D01*
X102908120Y-133160242D02*
X102342434Y-132594557D01*
X102342434Y-132594557D02*
X102557934Y-132379057D01*
X102557934Y-132379057D02*
X102638746Y-132352120D01*
X102638746Y-132352120D02*
X102692621Y-132352120D01*
X102692621Y-132352120D02*
X102773433Y-132379057D01*
X102773433Y-132379057D02*
X102854245Y-132459870D01*
X102854245Y-132459870D02*
X102881182Y-132540682D01*
X102881182Y-132540682D02*
X102881182Y-132594557D01*
X102881182Y-132594557D02*
X102854245Y-132675369D01*
X102854245Y-132675369D02*
X102638746Y-132890868D01*
X103770117Y-132298245D02*
X103446868Y-132621494D01*
X103608492Y-132459870D02*
X103042807Y-131894184D01*
X103042807Y-131894184D02*
X103069744Y-132028871D01*
X103069744Y-132028871D02*
X103069744Y-132136621D01*
X103069744Y-132136621D02*
X103042807Y-132217433D01*
X103716242Y-131220749D02*
X103446868Y-131490123D01*
X103446868Y-131490123D02*
X103689305Y-131786434D01*
X103689305Y-131786434D02*
X103689305Y-131732560D01*
X103689305Y-131732560D02*
X103716242Y-131651747D01*
X103716242Y-131651747D02*
X103850929Y-131517060D01*
X103850929Y-131517060D02*
X103931741Y-131490123D01*
X103931741Y-131490123D02*
X103985616Y-131490123D01*
X103985616Y-131490123D02*
X104066428Y-131517060D01*
X104066428Y-131517060D02*
X104201115Y-131651747D01*
X104201115Y-131651747D02*
X104228053Y-131732560D01*
X104228053Y-131732560D02*
X104228053Y-131786434D01*
X104228053Y-131786434D02*
X104201115Y-131867247D01*
X104201115Y-131867247D02*
X104066428Y-132001934D01*
X104066428Y-132001934D02*
X103985616Y-132028871D01*
X103985616Y-132028871D02*
X103931741Y-132028871D01*
X128207998Y-130350868D02*
X128127185Y-130377805D01*
X128127185Y-130377805D02*
X128046373Y-130458618D01*
X128046373Y-130458618D02*
X127992498Y-130566367D01*
X127992498Y-130566367D02*
X127992498Y-130674117D01*
X127992498Y-130674117D02*
X128019436Y-130754929D01*
X128019436Y-130754929D02*
X128100248Y-130889616D01*
X128100248Y-130889616D02*
X128181060Y-130970428D01*
X128181060Y-130970428D02*
X128315747Y-131051241D01*
X128315747Y-131051241D02*
X128396560Y-131078178D01*
X128396560Y-131078178D02*
X128504309Y-131078178D01*
X128504309Y-131078178D02*
X128612059Y-131024303D01*
X128612059Y-131024303D02*
X128665934Y-130970428D01*
X128665934Y-130970428D02*
X128719808Y-130862679D01*
X128719808Y-130862679D02*
X128719808Y-130808804D01*
X128719808Y-130808804D02*
X128531247Y-130620242D01*
X128531247Y-130620242D02*
X128423497Y-130727992D01*
X129016120Y-130620242D02*
X128450434Y-130054557D01*
X128450434Y-130054557D02*
X128665934Y-129839057D01*
X128665934Y-129839057D02*
X128746746Y-129812120D01*
X128746746Y-129812120D02*
X128800621Y-129812120D01*
X128800621Y-129812120D02*
X128881433Y-129839057D01*
X128881433Y-129839057D02*
X128962245Y-129919870D01*
X128962245Y-129919870D02*
X128989182Y-130000682D01*
X128989182Y-130000682D02*
X128989182Y-130054557D01*
X128989182Y-130054557D02*
X128962245Y-130135369D01*
X128962245Y-130135369D02*
X128746746Y-130350868D01*
X129878117Y-129758245D02*
X129554868Y-130081494D01*
X129716492Y-129919870D02*
X129150807Y-129354184D01*
X129150807Y-129354184D02*
X129177744Y-129488871D01*
X129177744Y-129488871D02*
X129177744Y-129596621D01*
X129177744Y-129596621D02*
X129150807Y-129677433D01*
X129500993Y-129003998D02*
X129878117Y-128626874D01*
X129878117Y-128626874D02*
X130201366Y-129434996D01*
X128207998Y-107490868D02*
X128127185Y-107517805D01*
X128127185Y-107517805D02*
X128046373Y-107598618D01*
X128046373Y-107598618D02*
X127992498Y-107706367D01*
X127992498Y-107706367D02*
X127992498Y-107814117D01*
X127992498Y-107814117D02*
X128019436Y-107894929D01*
X128019436Y-107894929D02*
X128100248Y-108029616D01*
X128100248Y-108029616D02*
X128181060Y-108110428D01*
X128181060Y-108110428D02*
X128315747Y-108191241D01*
X128315747Y-108191241D02*
X128396560Y-108218178D01*
X128396560Y-108218178D02*
X128504309Y-108218178D01*
X128504309Y-108218178D02*
X128612059Y-108164303D01*
X128612059Y-108164303D02*
X128665934Y-108110428D01*
X128665934Y-108110428D02*
X128719808Y-108002679D01*
X128719808Y-108002679D02*
X128719808Y-107948804D01*
X128719808Y-107948804D02*
X128531247Y-107760242D01*
X128531247Y-107760242D02*
X128423497Y-107867992D01*
X129016120Y-107760242D02*
X128450434Y-107194557D01*
X128450434Y-107194557D02*
X128665934Y-106979057D01*
X128665934Y-106979057D02*
X128746746Y-106952120D01*
X128746746Y-106952120D02*
X128800621Y-106952120D01*
X128800621Y-106952120D02*
X128881433Y-106979057D01*
X128881433Y-106979057D02*
X128962245Y-107059870D01*
X128962245Y-107059870D02*
X128989182Y-107140682D01*
X128989182Y-107140682D02*
X128989182Y-107194557D01*
X128989182Y-107194557D02*
X128962245Y-107275369D01*
X128962245Y-107275369D02*
X128746746Y-107490868D01*
X129043057Y-106709683D02*
X129043057Y-106655809D01*
X129043057Y-106655809D02*
X129069995Y-106574996D01*
X129069995Y-106574996D02*
X129204682Y-106440309D01*
X129204682Y-106440309D02*
X129285494Y-106413372D01*
X129285494Y-106413372D02*
X129339369Y-106413372D01*
X129339369Y-106413372D02*
X129420181Y-106440309D01*
X129420181Y-106440309D02*
X129474056Y-106494184D01*
X129474056Y-106494184D02*
X129527930Y-106601934D01*
X129527930Y-106601934D02*
X129527930Y-107248431D01*
X129527930Y-107248431D02*
X129878117Y-106898245D01*
X129797305Y-105847686D02*
X129689555Y-105955436D01*
X129689555Y-105955436D02*
X129662618Y-106036248D01*
X129662618Y-106036248D02*
X129662618Y-106090123D01*
X129662618Y-106090123D02*
X129689555Y-106224810D01*
X129689555Y-106224810D02*
X129770367Y-106359497D01*
X129770367Y-106359497D02*
X129985866Y-106574996D01*
X129985866Y-106574996D02*
X130066679Y-106601934D01*
X130066679Y-106601934D02*
X130120553Y-106601934D01*
X130120553Y-106601934D02*
X130201366Y-106574996D01*
X130201366Y-106574996D02*
X130309115Y-106467247D01*
X130309115Y-106467247D02*
X130336053Y-106386434D01*
X130336053Y-106386434D02*
X130336053Y-106332560D01*
X130336053Y-106332560D02*
X130309115Y-106251747D01*
X130309115Y-106251747D02*
X130174428Y-106117060D01*
X130174428Y-106117060D02*
X130093616Y-106090123D01*
X130093616Y-106090123D02*
X130039741Y-106090123D01*
X130039741Y-106090123D02*
X129958929Y-106117060D01*
X129958929Y-106117060D02*
X129851179Y-106224810D01*
X129851179Y-106224810D02*
X129824242Y-106305622D01*
X129824242Y-106305622D02*
X129824242Y-106359497D01*
X129824242Y-106359497D02*
X129851179Y-106440309D01*
X108600475Y-134894200D02*
X108714761Y-134932295D01*
X108714761Y-134932295D02*
X108905237Y-134932295D01*
X108905237Y-134932295D02*
X108981428Y-134894200D01*
X108981428Y-134894200D02*
X109019523Y-134856104D01*
X109019523Y-134856104D02*
X109057618Y-134779914D01*
X109057618Y-134779914D02*
X109057618Y-134703723D01*
X109057618Y-134703723D02*
X109019523Y-134627533D01*
X109019523Y-134627533D02*
X108981428Y-134589438D01*
X108981428Y-134589438D02*
X108905237Y-134551342D01*
X108905237Y-134551342D02*
X108752856Y-134513247D01*
X108752856Y-134513247D02*
X108676666Y-134475152D01*
X108676666Y-134475152D02*
X108638571Y-134437057D01*
X108638571Y-134437057D02*
X108600475Y-134360866D01*
X108600475Y-134360866D02*
X108600475Y-134284676D01*
X108600475Y-134284676D02*
X108638571Y-134208485D01*
X108638571Y-134208485D02*
X108676666Y-134170390D01*
X108676666Y-134170390D02*
X108752856Y-134132295D01*
X108752856Y-134132295D02*
X108943333Y-134132295D01*
X108943333Y-134132295D02*
X109057618Y-134170390D01*
X109324285Y-134132295D02*
X109514761Y-134932295D01*
X109514761Y-134932295D02*
X109667142Y-134360866D01*
X109667142Y-134360866D02*
X109819523Y-134932295D01*
X109819523Y-134932295D02*
X110010000Y-134132295D01*
X110771905Y-134856104D02*
X110733809Y-134894200D01*
X110733809Y-134894200D02*
X110619524Y-134932295D01*
X110619524Y-134932295D02*
X110543333Y-134932295D01*
X110543333Y-134932295D02*
X110429047Y-134894200D01*
X110429047Y-134894200D02*
X110352857Y-134818009D01*
X110352857Y-134818009D02*
X110314762Y-134741819D01*
X110314762Y-134741819D02*
X110276666Y-134589438D01*
X110276666Y-134589438D02*
X110276666Y-134475152D01*
X110276666Y-134475152D02*
X110314762Y-134322771D01*
X110314762Y-134322771D02*
X110352857Y-134246580D01*
X110352857Y-134246580D02*
X110429047Y-134170390D01*
X110429047Y-134170390D02*
X110543333Y-134132295D01*
X110543333Y-134132295D02*
X110619524Y-134132295D01*
X110619524Y-134132295D02*
X110733809Y-134170390D01*
X110733809Y-134170390D02*
X110771905Y-134208485D01*
X111495714Y-134932295D02*
X111114762Y-134932295D01*
X111114762Y-134932295D02*
X111114762Y-134132295D01*
X111762381Y-134932295D02*
X111762381Y-134132295D01*
X112219524Y-134932295D02*
X111876666Y-134475152D01*
X112219524Y-134132295D02*
X111762381Y-134589438D01*
X128032407Y-92328584D02*
X128382593Y-91978398D01*
X128382593Y-91978398D02*
X128409531Y-92382459D01*
X128409531Y-92382459D02*
X128490343Y-92301646D01*
X128490343Y-92301646D02*
X128571155Y-92274709D01*
X128571155Y-92274709D02*
X128625030Y-92274709D01*
X128625030Y-92274709D02*
X128705842Y-92301646D01*
X128705842Y-92301646D02*
X128840529Y-92436333D01*
X128840529Y-92436333D02*
X128867467Y-92517146D01*
X128867467Y-92517146D02*
X128867467Y-92571020D01*
X128867467Y-92571020D02*
X128840529Y-92651833D01*
X128840529Y-92651833D02*
X128678905Y-92813457D01*
X128678905Y-92813457D02*
X128598093Y-92840394D01*
X128598093Y-92840394D02*
X128544218Y-92840394D01*
X128544218Y-91816773D02*
X129298465Y-92193897D01*
X129298465Y-92193897D02*
X128921342Y-91439649D01*
X129056028Y-91304963D02*
X129406215Y-90954776D01*
X129406215Y-90954776D02*
X129433152Y-91358837D01*
X129433152Y-91358837D02*
X129513964Y-91278025D01*
X129513964Y-91278025D02*
X129594776Y-91251088D01*
X129594776Y-91251088D02*
X129648651Y-91251088D01*
X129648651Y-91251088D02*
X129729464Y-91278025D01*
X129729464Y-91278025D02*
X129864151Y-91412712D01*
X129864151Y-91412712D02*
X129891088Y-91493524D01*
X129891088Y-91493524D02*
X129891088Y-91547399D01*
X129891088Y-91547399D02*
X129864151Y-91628211D01*
X129864151Y-91628211D02*
X129702526Y-91789836D01*
X129702526Y-91789836D02*
X129621714Y-91816773D01*
X129621714Y-91816773D02*
X129567839Y-91816773D01*
X130133525Y-91466587D02*
X130564523Y-91035588D01*
X130349024Y-90550715D02*
X130537586Y-90362153D01*
X130914709Y-90577652D02*
X130645335Y-90847026D01*
X130645335Y-90847026D02*
X130079650Y-90281341D01*
X130079650Y-90281341D02*
X130349024Y-90011967D01*
X131157146Y-90335215D02*
X130591461Y-89769530D01*
X130591461Y-89769530D02*
X131480395Y-90011967D01*
X131480395Y-90011967D02*
X130914710Y-89446281D01*
X128000123Y-94860868D02*
X128350309Y-94510682D01*
X128350309Y-94510682D02*
X128377247Y-94914743D01*
X128377247Y-94914743D02*
X128458059Y-94833931D01*
X128458059Y-94833931D02*
X128538871Y-94806993D01*
X128538871Y-94806993D02*
X128592746Y-94806993D01*
X128592746Y-94806993D02*
X128673558Y-94833931D01*
X128673558Y-94833931D02*
X128808245Y-94968618D01*
X128808245Y-94968618D02*
X128835182Y-95049430D01*
X128835182Y-95049430D02*
X128835182Y-95103305D01*
X128835182Y-95103305D02*
X128808245Y-95184117D01*
X128808245Y-95184117D02*
X128646621Y-95345741D01*
X128646621Y-95345741D02*
X128565808Y-95372679D01*
X128565808Y-95372679D02*
X128511934Y-95372679D01*
X128511934Y-94349057D02*
X129266181Y-94726181D01*
X129266181Y-94726181D02*
X128889057Y-93971934D01*
X129023744Y-93837247D02*
X129373930Y-93487061D01*
X129373930Y-93487061D02*
X129400868Y-93891122D01*
X129400868Y-93891122D02*
X129481680Y-93810309D01*
X129481680Y-93810309D02*
X129562492Y-93783372D01*
X129562492Y-93783372D02*
X129616367Y-93783372D01*
X129616367Y-93783372D02*
X129697179Y-93810309D01*
X129697179Y-93810309D02*
X129831866Y-93944996D01*
X129831866Y-93944996D02*
X129858804Y-94025809D01*
X129858804Y-94025809D02*
X129858804Y-94079683D01*
X129858804Y-94079683D02*
X129831866Y-94160496D01*
X129831866Y-94160496D02*
X129670242Y-94322120D01*
X129670242Y-94322120D02*
X129589430Y-94349057D01*
X129589430Y-94349057D02*
X129535555Y-94349057D01*
X102623372Y-109761494D02*
X102542560Y-109788431D01*
X102542560Y-109788431D02*
X102461748Y-109869243D01*
X102461748Y-109869243D02*
X102407873Y-109976993D01*
X102407873Y-109976993D02*
X102407873Y-110084742D01*
X102407873Y-110084742D02*
X102434810Y-110165555D01*
X102434810Y-110165555D02*
X102515623Y-110300242D01*
X102515623Y-110300242D02*
X102596435Y-110381054D01*
X102596435Y-110381054D02*
X102731122Y-110461866D01*
X102731122Y-110461866D02*
X102811934Y-110488803D01*
X102811934Y-110488803D02*
X102919684Y-110488803D01*
X102919684Y-110488803D02*
X103027433Y-110434929D01*
X103027433Y-110434929D02*
X103081308Y-110381054D01*
X103081308Y-110381054D02*
X103135183Y-110273304D01*
X103135183Y-110273304D02*
X103135183Y-110219429D01*
X103135183Y-110219429D02*
X102946621Y-110030868D01*
X102946621Y-110030868D02*
X102838871Y-110138617D01*
X103431494Y-110030868D02*
X102865809Y-109465182D01*
X102865809Y-109465182D02*
X103081308Y-109249683D01*
X103081308Y-109249683D02*
X103162120Y-109222746D01*
X103162120Y-109222746D02*
X103215995Y-109222746D01*
X103215995Y-109222746D02*
X103296807Y-109249683D01*
X103296807Y-109249683D02*
X103377619Y-109330495D01*
X103377619Y-109330495D02*
X103404557Y-109411307D01*
X103404557Y-109411307D02*
X103404557Y-109465182D01*
X103404557Y-109465182D02*
X103377619Y-109545994D01*
X103377619Y-109545994D02*
X103162120Y-109761494D01*
X103754743Y-109061121D02*
X103673931Y-109088059D01*
X103673931Y-109088059D02*
X103620056Y-109088059D01*
X103620056Y-109088059D02*
X103539244Y-109061121D01*
X103539244Y-109061121D02*
X103512306Y-109034184D01*
X103512306Y-109034184D02*
X103485369Y-108953372D01*
X103485369Y-108953372D02*
X103485369Y-108899497D01*
X103485369Y-108899497D02*
X103512306Y-108818685D01*
X103512306Y-108818685D02*
X103620056Y-108710935D01*
X103620056Y-108710935D02*
X103700868Y-108683998D01*
X103700868Y-108683998D02*
X103754743Y-108683998D01*
X103754743Y-108683998D02*
X103835555Y-108710935D01*
X103835555Y-108710935D02*
X103862493Y-108737872D01*
X103862493Y-108737872D02*
X103889430Y-108818685D01*
X103889430Y-108818685D02*
X103889430Y-108872559D01*
X103889430Y-108872559D02*
X103862493Y-108953372D01*
X103862493Y-108953372D02*
X103754743Y-109061121D01*
X103754743Y-109061121D02*
X103727806Y-109141933D01*
X103727806Y-109141933D02*
X103727806Y-109195808D01*
X103727806Y-109195808D02*
X103754743Y-109276620D01*
X103754743Y-109276620D02*
X103862493Y-109384370D01*
X103862493Y-109384370D02*
X103943305Y-109411307D01*
X103943305Y-109411307D02*
X103997180Y-109411307D01*
X103997180Y-109411307D02*
X104077992Y-109384370D01*
X104077992Y-109384370D02*
X104185741Y-109276620D01*
X104185741Y-109276620D02*
X104212679Y-109195808D01*
X104212679Y-109195808D02*
X104212679Y-109141933D01*
X104212679Y-109141933D02*
X104185741Y-109061121D01*
X104185741Y-109061121D02*
X104077992Y-108953372D01*
X104077992Y-108953372D02*
X103997180Y-108926434D01*
X103997180Y-108926434D02*
X103943305Y-108926434D01*
X103943305Y-108926434D02*
X103862493Y-108953372D01*
X128207998Y-132890868D02*
X128127185Y-132917805D01*
X128127185Y-132917805D02*
X128046373Y-132998618D01*
X128046373Y-132998618D02*
X127992498Y-133106367D01*
X127992498Y-133106367D02*
X127992498Y-133214117D01*
X127992498Y-133214117D02*
X128019436Y-133294929D01*
X128019436Y-133294929D02*
X128100248Y-133429616D01*
X128100248Y-133429616D02*
X128181060Y-133510428D01*
X128181060Y-133510428D02*
X128315747Y-133591241D01*
X128315747Y-133591241D02*
X128396560Y-133618178D01*
X128396560Y-133618178D02*
X128504309Y-133618178D01*
X128504309Y-133618178D02*
X128612059Y-133564303D01*
X128612059Y-133564303D02*
X128665934Y-133510428D01*
X128665934Y-133510428D02*
X128719808Y-133402679D01*
X128719808Y-133402679D02*
X128719808Y-133348804D01*
X128719808Y-133348804D02*
X128531247Y-133160242D01*
X128531247Y-133160242D02*
X128423497Y-133267992D01*
X129016120Y-133160242D02*
X128450434Y-132594557D01*
X128450434Y-132594557D02*
X128665934Y-132379057D01*
X128665934Y-132379057D02*
X128746746Y-132352120D01*
X128746746Y-132352120D02*
X128800621Y-132352120D01*
X128800621Y-132352120D02*
X128881433Y-132379057D01*
X128881433Y-132379057D02*
X128962245Y-132459870D01*
X128962245Y-132459870D02*
X128989182Y-132540682D01*
X128989182Y-132540682D02*
X128989182Y-132594557D01*
X128989182Y-132594557D02*
X128962245Y-132675369D01*
X128962245Y-132675369D02*
X128746746Y-132890868D01*
X129878117Y-132298245D02*
X129554868Y-132621494D01*
X129716492Y-132459870D02*
X129150807Y-131894184D01*
X129150807Y-131894184D02*
X129177744Y-132028871D01*
X129177744Y-132028871D02*
X129177744Y-132136621D01*
X129177744Y-132136621D02*
X129150807Y-132217433D01*
X129797305Y-131247686D02*
X129689555Y-131355436D01*
X129689555Y-131355436D02*
X129662618Y-131436248D01*
X129662618Y-131436248D02*
X129662618Y-131490123D01*
X129662618Y-131490123D02*
X129689555Y-131624810D01*
X129689555Y-131624810D02*
X129770367Y-131759497D01*
X129770367Y-131759497D02*
X129985866Y-131974996D01*
X129985866Y-131974996D02*
X130066679Y-132001934D01*
X130066679Y-132001934D02*
X130120553Y-132001934D01*
X130120553Y-132001934D02*
X130201366Y-131974996D01*
X130201366Y-131974996D02*
X130309115Y-131867247D01*
X130309115Y-131867247D02*
X130336053Y-131786434D01*
X130336053Y-131786434D02*
X130336053Y-131732560D01*
X130336053Y-131732560D02*
X130309115Y-131651747D01*
X130309115Y-131651747D02*
X130174428Y-131517060D01*
X130174428Y-131517060D02*
X130093616Y-131490123D01*
X130093616Y-131490123D02*
X130039741Y-131490123D01*
X130039741Y-131490123D02*
X129958929Y-131517060D01*
X129958929Y-131517060D02*
X129851179Y-131624810D01*
X129851179Y-131624810D02*
X129824242Y-131705622D01*
X129824242Y-131705622D02*
X129824242Y-131759497D01*
X129824242Y-131759497D02*
X129851179Y-131840309D01*
X128196435Y-114868431D02*
X128115623Y-114895368D01*
X128115623Y-114895368D02*
X128034811Y-114976180D01*
X128034811Y-114976180D02*
X127980936Y-115083930D01*
X127980936Y-115083930D02*
X127980936Y-115191680D01*
X127980936Y-115191680D02*
X128007873Y-115272492D01*
X128007873Y-115272492D02*
X128088685Y-115407179D01*
X128088685Y-115407179D02*
X128169498Y-115487991D01*
X128169498Y-115487991D02*
X128304185Y-115568803D01*
X128304185Y-115568803D02*
X128384997Y-115595741D01*
X128384997Y-115595741D02*
X128492746Y-115595741D01*
X128492746Y-115595741D02*
X128600496Y-115541866D01*
X128600496Y-115541866D02*
X128654371Y-115487991D01*
X128654371Y-115487991D02*
X128708246Y-115380241D01*
X128708246Y-115380241D02*
X128708246Y-115326367D01*
X128708246Y-115326367D02*
X128519684Y-115137805D01*
X128519684Y-115137805D02*
X128411934Y-115245554D01*
X129004557Y-115137805D02*
X128438872Y-114572119D01*
X128438872Y-114572119D02*
X129327806Y-114814556D01*
X129327806Y-114814556D02*
X128762120Y-114248871D01*
X129597180Y-114545182D02*
X129031494Y-113979497D01*
X129031494Y-113979497D02*
X129166181Y-113844810D01*
X129166181Y-113844810D02*
X129273931Y-113790935D01*
X129273931Y-113790935D02*
X129381680Y-113790935D01*
X129381680Y-113790935D02*
X129462493Y-113817872D01*
X129462493Y-113817872D02*
X129597180Y-113898685D01*
X129597180Y-113898685D02*
X129677992Y-113979497D01*
X129677992Y-113979497D02*
X129758804Y-114114184D01*
X129758804Y-114114184D02*
X129785741Y-114194996D01*
X129785741Y-114194996D02*
X129785741Y-114302746D01*
X129785741Y-114302746D02*
X129731867Y-114410495D01*
X129731867Y-114410495D02*
X129597180Y-114545182D01*
X102596435Y-102168431D02*
X102515623Y-102195368D01*
X102515623Y-102195368D02*
X102434811Y-102276180D01*
X102434811Y-102276180D02*
X102380936Y-102383930D01*
X102380936Y-102383930D02*
X102380936Y-102491680D01*
X102380936Y-102491680D02*
X102407873Y-102572492D01*
X102407873Y-102572492D02*
X102488685Y-102707179D01*
X102488685Y-102707179D02*
X102569498Y-102787991D01*
X102569498Y-102787991D02*
X102704185Y-102868803D01*
X102704185Y-102868803D02*
X102784997Y-102895741D01*
X102784997Y-102895741D02*
X102892746Y-102895741D01*
X102892746Y-102895741D02*
X103000496Y-102841866D01*
X103000496Y-102841866D02*
X103054371Y-102787991D01*
X103054371Y-102787991D02*
X103108246Y-102680241D01*
X103108246Y-102680241D02*
X103108246Y-102626367D01*
X103108246Y-102626367D02*
X102919684Y-102437805D01*
X102919684Y-102437805D02*
X102811934Y-102545554D01*
X103404557Y-102437805D02*
X102838872Y-101872119D01*
X102838872Y-101872119D02*
X103727806Y-102114556D01*
X103727806Y-102114556D02*
X103162120Y-101548871D01*
X103997180Y-101845182D02*
X103431494Y-101279497D01*
X103431494Y-101279497D02*
X103566181Y-101144810D01*
X103566181Y-101144810D02*
X103673931Y-101090935D01*
X103673931Y-101090935D02*
X103781680Y-101090935D01*
X103781680Y-101090935D02*
X103862493Y-101117872D01*
X103862493Y-101117872D02*
X103997180Y-101198685D01*
X103997180Y-101198685D02*
X104077992Y-101279497D01*
X104077992Y-101279497D02*
X104158804Y-101414184D01*
X104158804Y-101414184D02*
X104185741Y-101494996D01*
X104185741Y-101494996D02*
X104185741Y-101602746D01*
X104185741Y-101602746D02*
X104131867Y-101710495D01*
X104131867Y-101710495D02*
X103997180Y-101845182D01*
X128207998Y-99616868D02*
X128127185Y-99643805D01*
X128127185Y-99643805D02*
X128046373Y-99724618D01*
X128046373Y-99724618D02*
X127992498Y-99832367D01*
X127992498Y-99832367D02*
X127992498Y-99940117D01*
X127992498Y-99940117D02*
X128019436Y-100020929D01*
X128019436Y-100020929D02*
X128100248Y-100155616D01*
X128100248Y-100155616D02*
X128181060Y-100236428D01*
X128181060Y-100236428D02*
X128315747Y-100317241D01*
X128315747Y-100317241D02*
X128396560Y-100344178D01*
X128396560Y-100344178D02*
X128504309Y-100344178D01*
X128504309Y-100344178D02*
X128612059Y-100290303D01*
X128612059Y-100290303D02*
X128665934Y-100236428D01*
X128665934Y-100236428D02*
X128719808Y-100128679D01*
X128719808Y-100128679D02*
X128719808Y-100074804D01*
X128719808Y-100074804D02*
X128531247Y-99886242D01*
X128531247Y-99886242D02*
X128423497Y-99993992D01*
X129016120Y-99886242D02*
X128450434Y-99320557D01*
X128450434Y-99320557D02*
X128665934Y-99105057D01*
X128665934Y-99105057D02*
X128746746Y-99078120D01*
X128746746Y-99078120D02*
X128800621Y-99078120D01*
X128800621Y-99078120D02*
X128881433Y-99105057D01*
X128881433Y-99105057D02*
X128962245Y-99185870D01*
X128962245Y-99185870D02*
X128989182Y-99266682D01*
X128989182Y-99266682D02*
X128989182Y-99320557D01*
X128989182Y-99320557D02*
X128962245Y-99401369D01*
X128962245Y-99401369D02*
X128746746Y-99616868D01*
X129043057Y-98835683D02*
X129043057Y-98781809D01*
X129043057Y-98781809D02*
X129069995Y-98700996D01*
X129069995Y-98700996D02*
X129204682Y-98566309D01*
X129204682Y-98566309D02*
X129285494Y-98539372D01*
X129285494Y-98539372D02*
X129339369Y-98539372D01*
X129339369Y-98539372D02*
X129420181Y-98566309D01*
X129420181Y-98566309D02*
X129474056Y-98620184D01*
X129474056Y-98620184D02*
X129527930Y-98727934D01*
X129527930Y-98727934D02*
X129527930Y-99374431D01*
X129527930Y-99374431D02*
X129878117Y-99024245D01*
X129878117Y-98377747D02*
X129797305Y-98404685D01*
X129797305Y-98404685D02*
X129743430Y-98404685D01*
X129743430Y-98404685D02*
X129662618Y-98377747D01*
X129662618Y-98377747D02*
X129635680Y-98350810D01*
X129635680Y-98350810D02*
X129608743Y-98269998D01*
X129608743Y-98269998D02*
X129608743Y-98216123D01*
X129608743Y-98216123D02*
X129635680Y-98135311D01*
X129635680Y-98135311D02*
X129743430Y-98027561D01*
X129743430Y-98027561D02*
X129824242Y-98000624D01*
X129824242Y-98000624D02*
X129878117Y-98000624D01*
X129878117Y-98000624D02*
X129958929Y-98027561D01*
X129958929Y-98027561D02*
X129985866Y-98054499D01*
X129985866Y-98054499D02*
X130012804Y-98135311D01*
X130012804Y-98135311D02*
X130012804Y-98189186D01*
X130012804Y-98189186D02*
X129985866Y-98269998D01*
X129985866Y-98269998D02*
X129878117Y-98377747D01*
X129878117Y-98377747D02*
X129851179Y-98458560D01*
X129851179Y-98458560D02*
X129851179Y-98512434D01*
X129851179Y-98512434D02*
X129878117Y-98593247D01*
X129878117Y-98593247D02*
X129985866Y-98700996D01*
X129985866Y-98700996D02*
X130066679Y-98727934D01*
X130066679Y-98727934D02*
X130120553Y-98727934D01*
X130120553Y-98727934D02*
X130201366Y-98700996D01*
X130201366Y-98700996D02*
X130309115Y-98593247D01*
X130309115Y-98593247D02*
X130336053Y-98512434D01*
X130336053Y-98512434D02*
X130336053Y-98458560D01*
X130336053Y-98458560D02*
X130309115Y-98377747D01*
X130309115Y-98377747D02*
X130201366Y-98269998D01*
X130201366Y-98269998D02*
X130120553Y-98243060D01*
X130120553Y-98243060D02*
X130066679Y-98243060D01*
X130066679Y-98243060D02*
X129985866Y-98269998D01*
X102623372Y-112301494D02*
X102542560Y-112328431D01*
X102542560Y-112328431D02*
X102461748Y-112409243D01*
X102461748Y-112409243D02*
X102407873Y-112516993D01*
X102407873Y-112516993D02*
X102407873Y-112624742D01*
X102407873Y-112624742D02*
X102434810Y-112705555D01*
X102434810Y-112705555D02*
X102515623Y-112840242D01*
X102515623Y-112840242D02*
X102596435Y-112921054D01*
X102596435Y-112921054D02*
X102731122Y-113001866D01*
X102731122Y-113001866D02*
X102811934Y-113028803D01*
X102811934Y-113028803D02*
X102919684Y-113028803D01*
X102919684Y-113028803D02*
X103027433Y-112974929D01*
X103027433Y-112974929D02*
X103081308Y-112921054D01*
X103081308Y-112921054D02*
X103135183Y-112813304D01*
X103135183Y-112813304D02*
X103135183Y-112759429D01*
X103135183Y-112759429D02*
X102946621Y-112570868D01*
X102946621Y-112570868D02*
X102838871Y-112678617D01*
X103431494Y-112570868D02*
X102865809Y-112005182D01*
X102865809Y-112005182D02*
X103081308Y-111789683D01*
X103081308Y-111789683D02*
X103162120Y-111762746D01*
X103162120Y-111762746D02*
X103215995Y-111762746D01*
X103215995Y-111762746D02*
X103296807Y-111789683D01*
X103296807Y-111789683D02*
X103377619Y-111870495D01*
X103377619Y-111870495D02*
X103404557Y-111951307D01*
X103404557Y-111951307D02*
X103404557Y-112005182D01*
X103404557Y-112005182D02*
X103377619Y-112085994D01*
X103377619Y-112085994D02*
X103162120Y-112301494D01*
X104024117Y-111978245D02*
X104131867Y-111870495D01*
X104131867Y-111870495D02*
X104158804Y-111789683D01*
X104158804Y-111789683D02*
X104158804Y-111735808D01*
X104158804Y-111735808D02*
X104131867Y-111601121D01*
X104131867Y-111601121D02*
X104051054Y-111466434D01*
X104051054Y-111466434D02*
X103835555Y-111250935D01*
X103835555Y-111250935D02*
X103754743Y-111223998D01*
X103754743Y-111223998D02*
X103700868Y-111223998D01*
X103700868Y-111223998D02*
X103620056Y-111250935D01*
X103620056Y-111250935D02*
X103512306Y-111358685D01*
X103512306Y-111358685D02*
X103485369Y-111439497D01*
X103485369Y-111439497D02*
X103485369Y-111493372D01*
X103485369Y-111493372D02*
X103512306Y-111574184D01*
X103512306Y-111574184D02*
X103646993Y-111708871D01*
X103646993Y-111708871D02*
X103727806Y-111735808D01*
X103727806Y-111735808D02*
X103781680Y-111735808D01*
X103781680Y-111735808D02*
X103862493Y-111708871D01*
X103862493Y-111708871D02*
X103970242Y-111601121D01*
X103970242Y-111601121D02*
X103997180Y-111520309D01*
X103997180Y-111520309D02*
X103997180Y-111466434D01*
X103997180Y-111466434D02*
X103970242Y-111385622D01*
X120014761Y-134894200D02*
X120129047Y-134932295D01*
X120129047Y-134932295D02*
X120319523Y-134932295D01*
X120319523Y-134932295D02*
X120395714Y-134894200D01*
X120395714Y-134894200D02*
X120433809Y-134856104D01*
X120433809Y-134856104D02*
X120471904Y-134779914D01*
X120471904Y-134779914D02*
X120471904Y-134703723D01*
X120471904Y-134703723D02*
X120433809Y-134627533D01*
X120433809Y-134627533D02*
X120395714Y-134589438D01*
X120395714Y-134589438D02*
X120319523Y-134551342D01*
X120319523Y-134551342D02*
X120167142Y-134513247D01*
X120167142Y-134513247D02*
X120090952Y-134475152D01*
X120090952Y-134475152D02*
X120052857Y-134437057D01*
X120052857Y-134437057D02*
X120014761Y-134360866D01*
X120014761Y-134360866D02*
X120014761Y-134284676D01*
X120014761Y-134284676D02*
X120052857Y-134208485D01*
X120052857Y-134208485D02*
X120090952Y-134170390D01*
X120090952Y-134170390D02*
X120167142Y-134132295D01*
X120167142Y-134132295D02*
X120357619Y-134132295D01*
X120357619Y-134132295D02*
X120471904Y-134170390D01*
X120738571Y-134132295D02*
X120929047Y-134932295D01*
X120929047Y-134932295D02*
X121081428Y-134360866D01*
X121081428Y-134360866D02*
X121233809Y-134932295D01*
X121233809Y-134932295D02*
X121424286Y-134132295D01*
X121729048Y-134932295D02*
X121729048Y-134132295D01*
X121729048Y-134132295D02*
X121919524Y-134132295D01*
X121919524Y-134132295D02*
X122033810Y-134170390D01*
X122033810Y-134170390D02*
X122110000Y-134246580D01*
X122110000Y-134246580D02*
X122148095Y-134322771D01*
X122148095Y-134322771D02*
X122186191Y-134475152D01*
X122186191Y-134475152D02*
X122186191Y-134589438D01*
X122186191Y-134589438D02*
X122148095Y-134741819D01*
X122148095Y-134741819D02*
X122110000Y-134818009D01*
X122110000Y-134818009D02*
X122033810Y-134894200D01*
X122033810Y-134894200D02*
X121919524Y-134932295D01*
X121919524Y-134932295D02*
X121729048Y-134932295D01*
X122529048Y-134932295D02*
X122529048Y-134132295D01*
X123062381Y-134132295D02*
X123214762Y-134132295D01*
X123214762Y-134132295D02*
X123290952Y-134170390D01*
X123290952Y-134170390D02*
X123367143Y-134246580D01*
X123367143Y-134246580D02*
X123405238Y-134398961D01*
X123405238Y-134398961D02*
X123405238Y-134665628D01*
X123405238Y-134665628D02*
X123367143Y-134818009D01*
X123367143Y-134818009D02*
X123290952Y-134894200D01*
X123290952Y-134894200D02*
X123214762Y-134932295D01*
X123214762Y-134932295D02*
X123062381Y-134932295D01*
X123062381Y-134932295D02*
X122986190Y-134894200D01*
X122986190Y-134894200D02*
X122910000Y-134818009D01*
X122910000Y-134818009D02*
X122871904Y-134665628D01*
X122871904Y-134665628D02*
X122871904Y-134398961D01*
X122871904Y-134398961D02*
X122910000Y-134246580D01*
X122910000Y-134246580D02*
X122986190Y-134170390D01*
X122986190Y-134170390D02*
X123062381Y-134132295D01*
X102623372Y-99601494D02*
X102542560Y-99628431D01*
X102542560Y-99628431D02*
X102461748Y-99709243D01*
X102461748Y-99709243D02*
X102407873Y-99816993D01*
X102407873Y-99816993D02*
X102407873Y-99924742D01*
X102407873Y-99924742D02*
X102434810Y-100005555D01*
X102434810Y-100005555D02*
X102515623Y-100140242D01*
X102515623Y-100140242D02*
X102596435Y-100221054D01*
X102596435Y-100221054D02*
X102731122Y-100301866D01*
X102731122Y-100301866D02*
X102811934Y-100328803D01*
X102811934Y-100328803D02*
X102919684Y-100328803D01*
X102919684Y-100328803D02*
X103027433Y-100274929D01*
X103027433Y-100274929D02*
X103081308Y-100221054D01*
X103081308Y-100221054D02*
X103135183Y-100113304D01*
X103135183Y-100113304D02*
X103135183Y-100059429D01*
X103135183Y-100059429D02*
X102946621Y-99870868D01*
X102946621Y-99870868D02*
X102838871Y-99978617D01*
X103431494Y-99870868D02*
X102865809Y-99305182D01*
X102865809Y-99305182D02*
X103081308Y-99089683D01*
X103081308Y-99089683D02*
X103162120Y-99062746D01*
X103162120Y-99062746D02*
X103215995Y-99062746D01*
X103215995Y-99062746D02*
X103296807Y-99089683D01*
X103296807Y-99089683D02*
X103377619Y-99170495D01*
X103377619Y-99170495D02*
X103404557Y-99251307D01*
X103404557Y-99251307D02*
X103404557Y-99305182D01*
X103404557Y-99305182D02*
X103377619Y-99385994D01*
X103377619Y-99385994D02*
X103162120Y-99601494D01*
X103700868Y-98470123D02*
X103431494Y-98739497D01*
X103431494Y-98739497D02*
X103673931Y-99035808D01*
X103673931Y-99035808D02*
X103673931Y-98981933D01*
X103673931Y-98981933D02*
X103700868Y-98901121D01*
X103700868Y-98901121D02*
X103835555Y-98766434D01*
X103835555Y-98766434D02*
X103916367Y-98739497D01*
X103916367Y-98739497D02*
X103970242Y-98739497D01*
X103970242Y-98739497D02*
X104051054Y-98766434D01*
X104051054Y-98766434D02*
X104185741Y-98901121D01*
X104185741Y-98901121D02*
X104212679Y-98981933D01*
X104212679Y-98981933D02*
X104212679Y-99035808D01*
X104212679Y-99035808D02*
X104185741Y-99116620D01*
X104185741Y-99116620D02*
X104051054Y-99251307D01*
X104051054Y-99251307D02*
X103970242Y-99278245D01*
X103970242Y-99278245D02*
X103916367Y-99278245D01*
X102623372Y-84361494D02*
X102542560Y-84388431D01*
X102542560Y-84388431D02*
X102461748Y-84469243D01*
X102461748Y-84469243D02*
X102407873Y-84576993D01*
X102407873Y-84576993D02*
X102407873Y-84684742D01*
X102407873Y-84684742D02*
X102434810Y-84765555D01*
X102434810Y-84765555D02*
X102515623Y-84900242D01*
X102515623Y-84900242D02*
X102596435Y-84981054D01*
X102596435Y-84981054D02*
X102731122Y-85061866D01*
X102731122Y-85061866D02*
X102811934Y-85088803D01*
X102811934Y-85088803D02*
X102919684Y-85088803D01*
X102919684Y-85088803D02*
X103027433Y-85034929D01*
X103027433Y-85034929D02*
X103081308Y-84981054D01*
X103081308Y-84981054D02*
X103135183Y-84873304D01*
X103135183Y-84873304D02*
X103135183Y-84819429D01*
X103135183Y-84819429D02*
X102946621Y-84630868D01*
X102946621Y-84630868D02*
X102838871Y-84738617D01*
X103431494Y-84630868D02*
X102865809Y-84065182D01*
X102865809Y-84065182D02*
X103081308Y-83849683D01*
X103081308Y-83849683D02*
X103162120Y-83822746D01*
X103162120Y-83822746D02*
X103215995Y-83822746D01*
X103215995Y-83822746D02*
X103296807Y-83849683D01*
X103296807Y-83849683D02*
X103377619Y-83930495D01*
X103377619Y-83930495D02*
X103404557Y-84011307D01*
X103404557Y-84011307D02*
X103404557Y-84065182D01*
X103404557Y-84065182D02*
X103377619Y-84145994D01*
X103377619Y-84145994D02*
X103162120Y-84361494D01*
X103539244Y-83391747D02*
X103593119Y-83337872D01*
X103593119Y-83337872D02*
X103673931Y-83310935D01*
X103673931Y-83310935D02*
X103727806Y-83310935D01*
X103727806Y-83310935D02*
X103808618Y-83337872D01*
X103808618Y-83337872D02*
X103943305Y-83418685D01*
X103943305Y-83418685D02*
X104077992Y-83553372D01*
X104077992Y-83553372D02*
X104158804Y-83688059D01*
X104158804Y-83688059D02*
X104185741Y-83768871D01*
X104185741Y-83768871D02*
X104185741Y-83822746D01*
X104185741Y-83822746D02*
X104158804Y-83903558D01*
X104158804Y-83903558D02*
X104104929Y-83957433D01*
X104104929Y-83957433D02*
X104024117Y-83984370D01*
X104024117Y-83984370D02*
X103970242Y-83984370D01*
X103970242Y-83984370D02*
X103889430Y-83957433D01*
X103889430Y-83957433D02*
X103754743Y-83876620D01*
X103754743Y-83876620D02*
X103620056Y-83741933D01*
X103620056Y-83741933D02*
X103539244Y-83607246D01*
X103539244Y-83607246D02*
X103512306Y-83526434D01*
X103512306Y-83526434D02*
X103512306Y-83472559D01*
X103512306Y-83472559D02*
X103539244Y-83391747D01*
X102623372Y-94521494D02*
X102542560Y-94548431D01*
X102542560Y-94548431D02*
X102461748Y-94629243D01*
X102461748Y-94629243D02*
X102407873Y-94736993D01*
X102407873Y-94736993D02*
X102407873Y-94844742D01*
X102407873Y-94844742D02*
X102434810Y-94925555D01*
X102434810Y-94925555D02*
X102515623Y-95060242D01*
X102515623Y-95060242D02*
X102596435Y-95141054D01*
X102596435Y-95141054D02*
X102731122Y-95221866D01*
X102731122Y-95221866D02*
X102811934Y-95248803D01*
X102811934Y-95248803D02*
X102919684Y-95248803D01*
X102919684Y-95248803D02*
X103027433Y-95194929D01*
X103027433Y-95194929D02*
X103081308Y-95141054D01*
X103081308Y-95141054D02*
X103135183Y-95033304D01*
X103135183Y-95033304D02*
X103135183Y-94979429D01*
X103135183Y-94979429D02*
X102946621Y-94790868D01*
X102946621Y-94790868D02*
X102838871Y-94898617D01*
X103431494Y-94790868D02*
X102865809Y-94225182D01*
X102865809Y-94225182D02*
X103081308Y-94009683D01*
X103081308Y-94009683D02*
X103162120Y-93982746D01*
X103162120Y-93982746D02*
X103215995Y-93982746D01*
X103215995Y-93982746D02*
X103296807Y-94009683D01*
X103296807Y-94009683D02*
X103377619Y-94090495D01*
X103377619Y-94090495D02*
X103404557Y-94171307D01*
X103404557Y-94171307D02*
X103404557Y-94225182D01*
X103404557Y-94225182D02*
X103377619Y-94305994D01*
X103377619Y-94305994D02*
X103162120Y-94521494D01*
X103377619Y-93713372D02*
X103727806Y-93363185D01*
X103727806Y-93363185D02*
X103754743Y-93767246D01*
X103754743Y-93767246D02*
X103835555Y-93686434D01*
X103835555Y-93686434D02*
X103916367Y-93659497D01*
X103916367Y-93659497D02*
X103970242Y-93659497D01*
X103970242Y-93659497D02*
X104051054Y-93686434D01*
X104051054Y-93686434D02*
X104185741Y-93821121D01*
X104185741Y-93821121D02*
X104212679Y-93901933D01*
X104212679Y-93901933D02*
X104212679Y-93955808D01*
X104212679Y-93955808D02*
X104185741Y-94036620D01*
X104185741Y-94036620D02*
X104024117Y-94198245D01*
X104024117Y-94198245D02*
X103943305Y-94225182D01*
X103943305Y-94225182D02*
X103889430Y-94225182D01*
X102596435Y-127568431D02*
X102515623Y-127595368D01*
X102515623Y-127595368D02*
X102434811Y-127676180D01*
X102434811Y-127676180D02*
X102380936Y-127783930D01*
X102380936Y-127783930D02*
X102380936Y-127891680D01*
X102380936Y-127891680D02*
X102407873Y-127972492D01*
X102407873Y-127972492D02*
X102488685Y-128107179D01*
X102488685Y-128107179D02*
X102569498Y-128187991D01*
X102569498Y-128187991D02*
X102704185Y-128268803D01*
X102704185Y-128268803D02*
X102784997Y-128295741D01*
X102784997Y-128295741D02*
X102892746Y-128295741D01*
X102892746Y-128295741D02*
X103000496Y-128241866D01*
X103000496Y-128241866D02*
X103054371Y-128187991D01*
X103054371Y-128187991D02*
X103108246Y-128080241D01*
X103108246Y-128080241D02*
X103108246Y-128026367D01*
X103108246Y-128026367D02*
X102919684Y-127837805D01*
X102919684Y-127837805D02*
X102811934Y-127945554D01*
X103404557Y-127837805D02*
X102838872Y-127272119D01*
X102838872Y-127272119D02*
X103727806Y-127514556D01*
X103727806Y-127514556D02*
X103162120Y-126948871D01*
X103997180Y-127245182D02*
X103431494Y-126679497D01*
X103431494Y-126679497D02*
X103566181Y-126544810D01*
X103566181Y-126544810D02*
X103673931Y-126490935D01*
X103673931Y-126490935D02*
X103781680Y-126490935D01*
X103781680Y-126490935D02*
X103862493Y-126517872D01*
X103862493Y-126517872D02*
X103997180Y-126598685D01*
X103997180Y-126598685D02*
X104077992Y-126679497D01*
X104077992Y-126679497D02*
X104158804Y-126814184D01*
X104158804Y-126814184D02*
X104185741Y-126894996D01*
X104185741Y-126894996D02*
X104185741Y-127002746D01*
X104185741Y-127002746D02*
X104131867Y-127110495D01*
X104131867Y-127110495D02*
X103997180Y-127245182D01*
X102596435Y-89468431D02*
X102515623Y-89495368D01*
X102515623Y-89495368D02*
X102434811Y-89576180D01*
X102434811Y-89576180D02*
X102380936Y-89683930D01*
X102380936Y-89683930D02*
X102380936Y-89791680D01*
X102380936Y-89791680D02*
X102407873Y-89872492D01*
X102407873Y-89872492D02*
X102488685Y-90007179D01*
X102488685Y-90007179D02*
X102569498Y-90087991D01*
X102569498Y-90087991D02*
X102704185Y-90168803D01*
X102704185Y-90168803D02*
X102784997Y-90195741D01*
X102784997Y-90195741D02*
X102892746Y-90195741D01*
X102892746Y-90195741D02*
X103000496Y-90141866D01*
X103000496Y-90141866D02*
X103054371Y-90087991D01*
X103054371Y-90087991D02*
X103108246Y-89980241D01*
X103108246Y-89980241D02*
X103108246Y-89926367D01*
X103108246Y-89926367D02*
X102919684Y-89737805D01*
X102919684Y-89737805D02*
X102811934Y-89845554D01*
X103404557Y-89737805D02*
X102838872Y-89172119D01*
X102838872Y-89172119D02*
X103727806Y-89414556D01*
X103727806Y-89414556D02*
X103162120Y-88848871D01*
X103997180Y-89145182D02*
X103431494Y-88579497D01*
X103431494Y-88579497D02*
X103566181Y-88444810D01*
X103566181Y-88444810D02*
X103673931Y-88390935D01*
X103673931Y-88390935D02*
X103781680Y-88390935D01*
X103781680Y-88390935D02*
X103862493Y-88417872D01*
X103862493Y-88417872D02*
X103997180Y-88498685D01*
X103997180Y-88498685D02*
X104077992Y-88579497D01*
X104077992Y-88579497D02*
X104158804Y-88714184D01*
X104158804Y-88714184D02*
X104185741Y-88794996D01*
X104185741Y-88794996D02*
X104185741Y-88902746D01*
X104185741Y-88902746D02*
X104131867Y-89010495D01*
X104131867Y-89010495D02*
X103997180Y-89145182D01*
X128207998Y-120190868D02*
X128127185Y-120217805D01*
X128127185Y-120217805D02*
X128046373Y-120298618D01*
X128046373Y-120298618D02*
X127992498Y-120406367D01*
X127992498Y-120406367D02*
X127992498Y-120514117D01*
X127992498Y-120514117D02*
X128019436Y-120594929D01*
X128019436Y-120594929D02*
X128100248Y-120729616D01*
X128100248Y-120729616D02*
X128181060Y-120810428D01*
X128181060Y-120810428D02*
X128315747Y-120891241D01*
X128315747Y-120891241D02*
X128396560Y-120918178D01*
X128396560Y-120918178D02*
X128504309Y-120918178D01*
X128504309Y-120918178D02*
X128612059Y-120864303D01*
X128612059Y-120864303D02*
X128665934Y-120810428D01*
X128665934Y-120810428D02*
X128719808Y-120702679D01*
X128719808Y-120702679D02*
X128719808Y-120648804D01*
X128719808Y-120648804D02*
X128531247Y-120460242D01*
X128531247Y-120460242D02*
X128423497Y-120567992D01*
X129016120Y-120460242D02*
X128450434Y-119894557D01*
X128450434Y-119894557D02*
X128665934Y-119679057D01*
X128665934Y-119679057D02*
X128746746Y-119652120D01*
X128746746Y-119652120D02*
X128800621Y-119652120D01*
X128800621Y-119652120D02*
X128881433Y-119679057D01*
X128881433Y-119679057D02*
X128962245Y-119759870D01*
X128962245Y-119759870D02*
X128989182Y-119840682D01*
X128989182Y-119840682D02*
X128989182Y-119894557D01*
X128989182Y-119894557D02*
X128962245Y-119975369D01*
X128962245Y-119975369D02*
X128746746Y-120190868D01*
X129043057Y-119409683D02*
X129043057Y-119355809D01*
X129043057Y-119355809D02*
X129069995Y-119274996D01*
X129069995Y-119274996D02*
X129204682Y-119140309D01*
X129204682Y-119140309D02*
X129285494Y-119113372D01*
X129285494Y-119113372D02*
X129339369Y-119113372D01*
X129339369Y-119113372D02*
X129420181Y-119140309D01*
X129420181Y-119140309D02*
X129474056Y-119194184D01*
X129474056Y-119194184D02*
X129527930Y-119301934D01*
X129527930Y-119301934D02*
X129527930Y-119948431D01*
X129527930Y-119948431D02*
X129878117Y-119598245D01*
X129662618Y-118682373D02*
X129716492Y-118628499D01*
X129716492Y-118628499D02*
X129797305Y-118601561D01*
X129797305Y-118601561D02*
X129851179Y-118601561D01*
X129851179Y-118601561D02*
X129931992Y-118628499D01*
X129931992Y-118628499D02*
X130066679Y-118709311D01*
X130066679Y-118709311D02*
X130201366Y-118843998D01*
X130201366Y-118843998D02*
X130282178Y-118978685D01*
X130282178Y-118978685D02*
X130309115Y-119059497D01*
X130309115Y-119059497D02*
X130309115Y-119113372D01*
X130309115Y-119113372D02*
X130282178Y-119194184D01*
X130282178Y-119194184D02*
X130228303Y-119248059D01*
X130228303Y-119248059D02*
X130147491Y-119274996D01*
X130147491Y-119274996D02*
X130093616Y-119274996D01*
X130093616Y-119274996D02*
X130012804Y-119248059D01*
X130012804Y-119248059D02*
X129878117Y-119167247D01*
X129878117Y-119167247D02*
X129743430Y-119032560D01*
X129743430Y-119032560D02*
X129662618Y-118897873D01*
X129662618Y-118897873D02*
X129635680Y-118817060D01*
X129635680Y-118817060D02*
X129635680Y-118763186D01*
X129635680Y-118763186D02*
X129662618Y-118682373D01*
X128207998Y-122730868D02*
X128127185Y-122757805D01*
X128127185Y-122757805D02*
X128046373Y-122838618D01*
X128046373Y-122838618D02*
X127992498Y-122946367D01*
X127992498Y-122946367D02*
X127992498Y-123054117D01*
X127992498Y-123054117D02*
X128019436Y-123134929D01*
X128019436Y-123134929D02*
X128100248Y-123269616D01*
X128100248Y-123269616D02*
X128181060Y-123350428D01*
X128181060Y-123350428D02*
X128315747Y-123431241D01*
X128315747Y-123431241D02*
X128396560Y-123458178D01*
X128396560Y-123458178D02*
X128504309Y-123458178D01*
X128504309Y-123458178D02*
X128612059Y-123404303D01*
X128612059Y-123404303D02*
X128665934Y-123350428D01*
X128665934Y-123350428D02*
X128719808Y-123242679D01*
X128719808Y-123242679D02*
X128719808Y-123188804D01*
X128719808Y-123188804D02*
X128531247Y-123000242D01*
X128531247Y-123000242D02*
X128423497Y-123107992D01*
X129016120Y-123000242D02*
X128450434Y-122434557D01*
X128450434Y-122434557D02*
X128665934Y-122219057D01*
X128665934Y-122219057D02*
X128746746Y-122192120D01*
X128746746Y-122192120D02*
X128800621Y-122192120D01*
X128800621Y-122192120D02*
X128881433Y-122219057D01*
X128881433Y-122219057D02*
X128962245Y-122299870D01*
X128962245Y-122299870D02*
X128989182Y-122380682D01*
X128989182Y-122380682D02*
X128989182Y-122434557D01*
X128989182Y-122434557D02*
X128962245Y-122515369D01*
X128962245Y-122515369D02*
X128746746Y-122730868D01*
X129878117Y-122138245D02*
X129554868Y-122461494D01*
X129716492Y-122299870D02*
X129150807Y-121734184D01*
X129150807Y-121734184D02*
X129177744Y-121868871D01*
X129177744Y-121868871D02*
X129177744Y-121976621D01*
X129177744Y-121976621D02*
X129150807Y-122057433D01*
X130147491Y-121868871D02*
X130255240Y-121761121D01*
X130255240Y-121761121D02*
X130282178Y-121680309D01*
X130282178Y-121680309D02*
X130282178Y-121626434D01*
X130282178Y-121626434D02*
X130255240Y-121491747D01*
X130255240Y-121491747D02*
X130174428Y-121357060D01*
X130174428Y-121357060D02*
X129958929Y-121141561D01*
X129958929Y-121141561D02*
X129878117Y-121114624D01*
X129878117Y-121114624D02*
X129824242Y-121114624D01*
X129824242Y-121114624D02*
X129743430Y-121141561D01*
X129743430Y-121141561D02*
X129635680Y-121249311D01*
X129635680Y-121249311D02*
X129608743Y-121330123D01*
X129608743Y-121330123D02*
X129608743Y-121383998D01*
X129608743Y-121383998D02*
X129635680Y-121464810D01*
X129635680Y-121464810D02*
X129770367Y-121599497D01*
X129770367Y-121599497D02*
X129851179Y-121626434D01*
X129851179Y-121626434D02*
X129905054Y-121626434D01*
X129905054Y-121626434D02*
X129985866Y-121599497D01*
X129985866Y-121599497D02*
X130093616Y-121491747D01*
X130093616Y-121491747D02*
X130120553Y-121410935D01*
X130120553Y-121410935D02*
X130120553Y-121357060D01*
X130120553Y-121357060D02*
X130093616Y-121276248D01*
X102523372Y-91981494D02*
X102442560Y-92008431D01*
X102442560Y-92008431D02*
X102361748Y-92089243D01*
X102361748Y-92089243D02*
X102307873Y-92196993D01*
X102307873Y-92196993D02*
X102307873Y-92304742D01*
X102307873Y-92304742D02*
X102334810Y-92385555D01*
X102334810Y-92385555D02*
X102415623Y-92520242D01*
X102415623Y-92520242D02*
X102496435Y-92601054D01*
X102496435Y-92601054D02*
X102631122Y-92681866D01*
X102631122Y-92681866D02*
X102711934Y-92708803D01*
X102711934Y-92708803D02*
X102819684Y-92708803D01*
X102819684Y-92708803D02*
X102927433Y-92654929D01*
X102927433Y-92654929D02*
X102981308Y-92601054D01*
X102981308Y-92601054D02*
X103035183Y-92493304D01*
X103035183Y-92493304D02*
X103035183Y-92439429D01*
X103035183Y-92439429D02*
X102846621Y-92250868D01*
X102846621Y-92250868D02*
X102738871Y-92358617D01*
X103331494Y-92250868D02*
X102765809Y-91685182D01*
X102765809Y-91685182D02*
X102981308Y-91469683D01*
X102981308Y-91469683D02*
X103062120Y-91442746D01*
X103062120Y-91442746D02*
X103115995Y-91442746D01*
X103115995Y-91442746D02*
X103196807Y-91469683D01*
X103196807Y-91469683D02*
X103277619Y-91550495D01*
X103277619Y-91550495D02*
X103304557Y-91631307D01*
X103304557Y-91631307D02*
X103304557Y-91685182D01*
X103304557Y-91685182D02*
X103277619Y-91765994D01*
X103277619Y-91765994D02*
X103062120Y-91981494D01*
X103358432Y-91200309D02*
X103358432Y-91146434D01*
X103358432Y-91146434D02*
X103385369Y-91065622D01*
X103385369Y-91065622D02*
X103520056Y-90930935D01*
X103520056Y-90930935D02*
X103600868Y-90903998D01*
X103600868Y-90903998D02*
X103654743Y-90903998D01*
X103654743Y-90903998D02*
X103735555Y-90930935D01*
X103735555Y-90930935D02*
X103789430Y-90984810D01*
X103789430Y-90984810D02*
X103843305Y-91092559D01*
X103843305Y-91092559D02*
X103843305Y-91739057D01*
X103843305Y-91739057D02*
X104193491Y-91388871D01*
X128207998Y-125270868D02*
X128127185Y-125297805D01*
X128127185Y-125297805D02*
X128046373Y-125378618D01*
X128046373Y-125378618D02*
X127992498Y-125486367D01*
X127992498Y-125486367D02*
X127992498Y-125594117D01*
X127992498Y-125594117D02*
X128019436Y-125674929D01*
X128019436Y-125674929D02*
X128100248Y-125809616D01*
X128100248Y-125809616D02*
X128181060Y-125890428D01*
X128181060Y-125890428D02*
X128315747Y-125971241D01*
X128315747Y-125971241D02*
X128396560Y-125998178D01*
X128396560Y-125998178D02*
X128504309Y-125998178D01*
X128504309Y-125998178D02*
X128612059Y-125944303D01*
X128612059Y-125944303D02*
X128665934Y-125890428D01*
X128665934Y-125890428D02*
X128719808Y-125782679D01*
X128719808Y-125782679D02*
X128719808Y-125728804D01*
X128719808Y-125728804D02*
X128531247Y-125540242D01*
X128531247Y-125540242D02*
X128423497Y-125647992D01*
X129016120Y-125540242D02*
X128450434Y-124974557D01*
X128450434Y-124974557D02*
X128665934Y-124759057D01*
X128665934Y-124759057D02*
X128746746Y-124732120D01*
X128746746Y-124732120D02*
X128800621Y-124732120D01*
X128800621Y-124732120D02*
X128881433Y-124759057D01*
X128881433Y-124759057D02*
X128962245Y-124839870D01*
X128962245Y-124839870D02*
X128989182Y-124920682D01*
X128989182Y-124920682D02*
X128989182Y-124974557D01*
X128989182Y-124974557D02*
X128962245Y-125055369D01*
X128962245Y-125055369D02*
X128746746Y-125270868D01*
X129878117Y-124678245D02*
X129554868Y-125001494D01*
X129716492Y-124839870D02*
X129150807Y-124274184D01*
X129150807Y-124274184D02*
X129177744Y-124408871D01*
X129177744Y-124408871D02*
X129177744Y-124516621D01*
X129177744Y-124516621D02*
X129150807Y-124597433D01*
X129878117Y-124031747D02*
X129797305Y-124058685D01*
X129797305Y-124058685D02*
X129743430Y-124058685D01*
X129743430Y-124058685D02*
X129662618Y-124031747D01*
X129662618Y-124031747D02*
X129635680Y-124004810D01*
X129635680Y-124004810D02*
X129608743Y-123923998D01*
X129608743Y-123923998D02*
X129608743Y-123870123D01*
X129608743Y-123870123D02*
X129635680Y-123789311D01*
X129635680Y-123789311D02*
X129743430Y-123681561D01*
X129743430Y-123681561D02*
X129824242Y-123654624D01*
X129824242Y-123654624D02*
X129878117Y-123654624D01*
X129878117Y-123654624D02*
X129958929Y-123681561D01*
X129958929Y-123681561D02*
X129985866Y-123708499D01*
X129985866Y-123708499D02*
X130012804Y-123789311D01*
X130012804Y-123789311D02*
X130012804Y-123843186D01*
X130012804Y-123843186D02*
X129985866Y-123923998D01*
X129985866Y-123923998D02*
X129878117Y-124031747D01*
X129878117Y-124031747D02*
X129851179Y-124112560D01*
X129851179Y-124112560D02*
X129851179Y-124166434D01*
X129851179Y-124166434D02*
X129878117Y-124247247D01*
X129878117Y-124247247D02*
X129985866Y-124354996D01*
X129985866Y-124354996D02*
X130066679Y-124381934D01*
X130066679Y-124381934D02*
X130120553Y-124381934D01*
X130120553Y-124381934D02*
X130201366Y-124354996D01*
X130201366Y-124354996D02*
X130309115Y-124247247D01*
X130309115Y-124247247D02*
X130336053Y-124166434D01*
X130336053Y-124166434D02*
X130336053Y-124112560D01*
X130336053Y-124112560D02*
X130309115Y-124031747D01*
X130309115Y-124031747D02*
X130201366Y-123923998D01*
X130201366Y-123923998D02*
X130120553Y-123897060D01*
X130120553Y-123897060D02*
X130066679Y-123897060D01*
X130066679Y-123897060D02*
X129985866Y-123923998D01*
X102623372Y-104681494D02*
X102542560Y-104708431D01*
X102542560Y-104708431D02*
X102461748Y-104789243D01*
X102461748Y-104789243D02*
X102407873Y-104896993D01*
X102407873Y-104896993D02*
X102407873Y-105004742D01*
X102407873Y-105004742D02*
X102434810Y-105085555D01*
X102434810Y-105085555D02*
X102515623Y-105220242D01*
X102515623Y-105220242D02*
X102596435Y-105301054D01*
X102596435Y-105301054D02*
X102731122Y-105381866D01*
X102731122Y-105381866D02*
X102811934Y-105408803D01*
X102811934Y-105408803D02*
X102919684Y-105408803D01*
X102919684Y-105408803D02*
X103027433Y-105354929D01*
X103027433Y-105354929D02*
X103081308Y-105301054D01*
X103081308Y-105301054D02*
X103135183Y-105193304D01*
X103135183Y-105193304D02*
X103135183Y-105139429D01*
X103135183Y-105139429D02*
X102946621Y-104950868D01*
X102946621Y-104950868D02*
X102838871Y-105058617D01*
X103431494Y-104950868D02*
X102865809Y-104385182D01*
X102865809Y-104385182D02*
X103081308Y-104169683D01*
X103081308Y-104169683D02*
X103162120Y-104142746D01*
X103162120Y-104142746D02*
X103215995Y-104142746D01*
X103215995Y-104142746D02*
X103296807Y-104169683D01*
X103296807Y-104169683D02*
X103377619Y-104250495D01*
X103377619Y-104250495D02*
X103404557Y-104331307D01*
X103404557Y-104331307D02*
X103404557Y-104385182D01*
X103404557Y-104385182D02*
X103377619Y-104465994D01*
X103377619Y-104465994D02*
X103162120Y-104681494D01*
X103673931Y-103577060D02*
X103566181Y-103684810D01*
X103566181Y-103684810D02*
X103539244Y-103765622D01*
X103539244Y-103765622D02*
X103539244Y-103819497D01*
X103539244Y-103819497D02*
X103566181Y-103954184D01*
X103566181Y-103954184D02*
X103646993Y-104088871D01*
X103646993Y-104088871D02*
X103862493Y-104304370D01*
X103862493Y-104304370D02*
X103943305Y-104331307D01*
X103943305Y-104331307D02*
X103997180Y-104331307D01*
X103997180Y-104331307D02*
X104077992Y-104304370D01*
X104077992Y-104304370D02*
X104185741Y-104196620D01*
X104185741Y-104196620D02*
X104212679Y-104115808D01*
X104212679Y-104115808D02*
X104212679Y-104061933D01*
X104212679Y-104061933D02*
X104185741Y-103981121D01*
X104185741Y-103981121D02*
X104051054Y-103846434D01*
X104051054Y-103846434D02*
X103970242Y-103819497D01*
X103970242Y-103819497D02*
X103916367Y-103819497D01*
X103916367Y-103819497D02*
X103835555Y-103846434D01*
X103835555Y-103846434D02*
X103727806Y-103954184D01*
X103727806Y-103954184D02*
X103700868Y-104034996D01*
X103700868Y-104034996D02*
X103700868Y-104088871D01*
X103700868Y-104088871D02*
X103727806Y-104169683D01*
X128207998Y-117660868D02*
X128127185Y-117687805D01*
X128127185Y-117687805D02*
X128046373Y-117768618D01*
X128046373Y-117768618D02*
X127992498Y-117876367D01*
X127992498Y-117876367D02*
X127992498Y-117984117D01*
X127992498Y-117984117D02*
X128019436Y-118064929D01*
X128019436Y-118064929D02*
X128100248Y-118199616D01*
X128100248Y-118199616D02*
X128181060Y-118280428D01*
X128181060Y-118280428D02*
X128315747Y-118361241D01*
X128315747Y-118361241D02*
X128396560Y-118388178D01*
X128396560Y-118388178D02*
X128504309Y-118388178D01*
X128504309Y-118388178D02*
X128612059Y-118334303D01*
X128612059Y-118334303D02*
X128665934Y-118280428D01*
X128665934Y-118280428D02*
X128719808Y-118172679D01*
X128719808Y-118172679D02*
X128719808Y-118118804D01*
X128719808Y-118118804D02*
X128531247Y-117930242D01*
X128531247Y-117930242D02*
X128423497Y-118037992D01*
X129016120Y-117930242D02*
X128450434Y-117364557D01*
X128450434Y-117364557D02*
X128665934Y-117149057D01*
X128665934Y-117149057D02*
X128746746Y-117122120D01*
X128746746Y-117122120D02*
X128800621Y-117122120D01*
X128800621Y-117122120D02*
X128881433Y-117149057D01*
X128881433Y-117149057D02*
X128962245Y-117229870D01*
X128962245Y-117229870D02*
X128989182Y-117310682D01*
X128989182Y-117310682D02*
X128989182Y-117364557D01*
X128989182Y-117364557D02*
X128962245Y-117445369D01*
X128962245Y-117445369D02*
X128746746Y-117660868D01*
X129043057Y-116879683D02*
X129043057Y-116825809D01*
X129043057Y-116825809D02*
X129069995Y-116744996D01*
X129069995Y-116744996D02*
X129204682Y-116610309D01*
X129204682Y-116610309D02*
X129285494Y-116583372D01*
X129285494Y-116583372D02*
X129339369Y-116583372D01*
X129339369Y-116583372D02*
X129420181Y-116610309D01*
X129420181Y-116610309D02*
X129474056Y-116664184D01*
X129474056Y-116664184D02*
X129527930Y-116771934D01*
X129527930Y-116771934D02*
X129527930Y-117418431D01*
X129527930Y-117418431D02*
X129878117Y-117068245D01*
X130416865Y-116529497D02*
X130093616Y-116852746D01*
X130255240Y-116691121D02*
X129689555Y-116125436D01*
X129689555Y-116125436D02*
X129716492Y-116260123D01*
X129716492Y-116260123D02*
X129716492Y-116367873D01*
X129716492Y-116367873D02*
X129689555Y-116448685D01*
X128207998Y-112570868D02*
X128127185Y-112597805D01*
X128127185Y-112597805D02*
X128046373Y-112678618D01*
X128046373Y-112678618D02*
X127992498Y-112786367D01*
X127992498Y-112786367D02*
X127992498Y-112894117D01*
X127992498Y-112894117D02*
X128019436Y-112974929D01*
X128019436Y-112974929D02*
X128100248Y-113109616D01*
X128100248Y-113109616D02*
X128181060Y-113190428D01*
X128181060Y-113190428D02*
X128315747Y-113271241D01*
X128315747Y-113271241D02*
X128396560Y-113298178D01*
X128396560Y-113298178D02*
X128504309Y-113298178D01*
X128504309Y-113298178D02*
X128612059Y-113244303D01*
X128612059Y-113244303D02*
X128665934Y-113190428D01*
X128665934Y-113190428D02*
X128719808Y-113082679D01*
X128719808Y-113082679D02*
X128719808Y-113028804D01*
X128719808Y-113028804D02*
X128531247Y-112840242D01*
X128531247Y-112840242D02*
X128423497Y-112947992D01*
X129016120Y-112840242D02*
X128450434Y-112274557D01*
X128450434Y-112274557D02*
X128665934Y-112059057D01*
X128665934Y-112059057D02*
X128746746Y-112032120D01*
X128746746Y-112032120D02*
X128800621Y-112032120D01*
X128800621Y-112032120D02*
X128881433Y-112059057D01*
X128881433Y-112059057D02*
X128962245Y-112139870D01*
X128962245Y-112139870D02*
X128989182Y-112220682D01*
X128989182Y-112220682D02*
X128989182Y-112274557D01*
X128989182Y-112274557D02*
X128962245Y-112355369D01*
X128962245Y-112355369D02*
X128746746Y-112570868D01*
X129043057Y-111789683D02*
X129043057Y-111735809D01*
X129043057Y-111735809D02*
X129069995Y-111654996D01*
X129069995Y-111654996D02*
X129204682Y-111520309D01*
X129204682Y-111520309D02*
X129285494Y-111493372D01*
X129285494Y-111493372D02*
X129339369Y-111493372D01*
X129339369Y-111493372D02*
X129420181Y-111520309D01*
X129420181Y-111520309D02*
X129474056Y-111574184D01*
X129474056Y-111574184D02*
X129527930Y-111681934D01*
X129527930Y-111681934D02*
X129527930Y-112328431D01*
X129527930Y-112328431D02*
X129878117Y-111978245D01*
X129581805Y-111250935D02*
X129581805Y-111197060D01*
X129581805Y-111197060D02*
X129608743Y-111116248D01*
X129608743Y-111116248D02*
X129743430Y-110981561D01*
X129743430Y-110981561D02*
X129824242Y-110954624D01*
X129824242Y-110954624D02*
X129878117Y-110954624D01*
X129878117Y-110954624D02*
X129958929Y-110981561D01*
X129958929Y-110981561D02*
X130012804Y-111035436D01*
X130012804Y-111035436D02*
X130066679Y-111143186D01*
X130066679Y-111143186D02*
X130066679Y-111789683D01*
X130066679Y-111789683D02*
X130416865Y-111439497D01*
X102596435Y-114868431D02*
X102515623Y-114895368D01*
X102515623Y-114895368D02*
X102434811Y-114976180D01*
X102434811Y-114976180D02*
X102380936Y-115083930D01*
X102380936Y-115083930D02*
X102380936Y-115191680D01*
X102380936Y-115191680D02*
X102407873Y-115272492D01*
X102407873Y-115272492D02*
X102488685Y-115407179D01*
X102488685Y-115407179D02*
X102569498Y-115487991D01*
X102569498Y-115487991D02*
X102704185Y-115568803D01*
X102704185Y-115568803D02*
X102784997Y-115595741D01*
X102784997Y-115595741D02*
X102892746Y-115595741D01*
X102892746Y-115595741D02*
X103000496Y-115541866D01*
X103000496Y-115541866D02*
X103054371Y-115487991D01*
X103054371Y-115487991D02*
X103108246Y-115380241D01*
X103108246Y-115380241D02*
X103108246Y-115326367D01*
X103108246Y-115326367D02*
X102919684Y-115137805D01*
X102919684Y-115137805D02*
X102811934Y-115245554D01*
X103404557Y-115137805D02*
X102838872Y-114572119D01*
X102838872Y-114572119D02*
X103727806Y-114814556D01*
X103727806Y-114814556D02*
X103162120Y-114248871D01*
X103997180Y-114545182D02*
X103431494Y-113979497D01*
X103431494Y-113979497D02*
X103566181Y-113844810D01*
X103566181Y-113844810D02*
X103673931Y-113790935D01*
X103673931Y-113790935D02*
X103781680Y-113790935D01*
X103781680Y-113790935D02*
X103862493Y-113817872D01*
X103862493Y-113817872D02*
X103997180Y-113898685D01*
X103997180Y-113898685D02*
X104077992Y-113979497D01*
X104077992Y-113979497D02*
X104158804Y-114114184D01*
X104158804Y-114114184D02*
X104185741Y-114194996D01*
X104185741Y-114194996D02*
X104185741Y-114302746D01*
X104185741Y-114302746D02*
X104131867Y-114410495D01*
X104131867Y-114410495D02*
X103997180Y-114545182D01*
X102053998Y-130350868D02*
X101973185Y-130377805D01*
X101973185Y-130377805D02*
X101892373Y-130458618D01*
X101892373Y-130458618D02*
X101838498Y-130566367D01*
X101838498Y-130566367D02*
X101838498Y-130674117D01*
X101838498Y-130674117D02*
X101865436Y-130754929D01*
X101865436Y-130754929D02*
X101946248Y-130889616D01*
X101946248Y-130889616D02*
X102027060Y-130970428D01*
X102027060Y-130970428D02*
X102161747Y-131051241D01*
X102161747Y-131051241D02*
X102242560Y-131078178D01*
X102242560Y-131078178D02*
X102350309Y-131078178D01*
X102350309Y-131078178D02*
X102458059Y-131024303D01*
X102458059Y-131024303D02*
X102511934Y-130970428D01*
X102511934Y-130970428D02*
X102565808Y-130862679D01*
X102565808Y-130862679D02*
X102565808Y-130808804D01*
X102565808Y-130808804D02*
X102377247Y-130620242D01*
X102377247Y-130620242D02*
X102269497Y-130727992D01*
X102862120Y-130620242D02*
X102296434Y-130054557D01*
X102296434Y-130054557D02*
X102511934Y-129839057D01*
X102511934Y-129839057D02*
X102592746Y-129812120D01*
X102592746Y-129812120D02*
X102646621Y-129812120D01*
X102646621Y-129812120D02*
X102727433Y-129839057D01*
X102727433Y-129839057D02*
X102808245Y-129919870D01*
X102808245Y-129919870D02*
X102835182Y-130000682D01*
X102835182Y-130000682D02*
X102835182Y-130054557D01*
X102835182Y-130054557D02*
X102808245Y-130135369D01*
X102808245Y-130135369D02*
X102592746Y-130350868D01*
X103724117Y-129758245D02*
X103400868Y-130081494D01*
X103562492Y-129919870D02*
X102996807Y-129354184D01*
X102996807Y-129354184D02*
X103023744Y-129488871D01*
X103023744Y-129488871D02*
X103023744Y-129596621D01*
X103023744Y-129596621D02*
X102996807Y-129677433D01*
X103831866Y-128896248D02*
X104208990Y-129273372D01*
X103481680Y-128815436D02*
X103751054Y-129354184D01*
X103751054Y-129354184D02*
X104101240Y-129003998D01*
X128030749Y-87440242D02*
X128784996Y-87817366D01*
X128784996Y-87817366D02*
X128407873Y-87063118D01*
X129108245Y-87440242D02*
X129215995Y-87386367D01*
X129215995Y-87386367D02*
X129350682Y-87251680D01*
X129350682Y-87251680D02*
X129377619Y-87170868D01*
X129377619Y-87170868D02*
X129377619Y-87116993D01*
X129377619Y-87116993D02*
X129350682Y-87036181D01*
X129350682Y-87036181D02*
X129296807Y-86982306D01*
X129296807Y-86982306D02*
X129215995Y-86955369D01*
X129215995Y-86955369D02*
X129162120Y-86955369D01*
X129162120Y-86955369D02*
X129081308Y-86982306D01*
X129081308Y-86982306D02*
X128946621Y-87063118D01*
X128946621Y-87063118D02*
X128865808Y-87090056D01*
X128865808Y-87090056D02*
X128811934Y-87090056D01*
X128811934Y-87090056D02*
X128731121Y-87063118D01*
X128731121Y-87063118D02*
X128677247Y-87009244D01*
X128677247Y-87009244D02*
X128650309Y-86928431D01*
X128650309Y-86928431D02*
X128650309Y-86874557D01*
X128650309Y-86874557D02*
X128677247Y-86793744D01*
X128677247Y-86793744D02*
X128811934Y-86659057D01*
X128811934Y-86659057D02*
X128919683Y-86605183D01*
X129539244Y-86524370D02*
X129808618Y-86793744D01*
X129054370Y-86416621D02*
X129539244Y-86524370D01*
X129539244Y-86524370D02*
X129431494Y-86039497D01*
X130131866Y-86416621D02*
X130239616Y-86362746D01*
X130239616Y-86362746D02*
X130374303Y-86228059D01*
X130374303Y-86228059D02*
X130401240Y-86147247D01*
X130401240Y-86147247D02*
X130401240Y-86093372D01*
X130401240Y-86093372D02*
X130374303Y-86012560D01*
X130374303Y-86012560D02*
X130320428Y-85958685D01*
X130320428Y-85958685D02*
X130239616Y-85931748D01*
X130239616Y-85931748D02*
X130185741Y-85931748D01*
X130185741Y-85931748D02*
X130104929Y-85958685D01*
X130104929Y-85958685D02*
X129970242Y-86039497D01*
X129970242Y-86039497D02*
X129889430Y-86066435D01*
X129889430Y-86066435D02*
X129835555Y-86066435D01*
X129835555Y-86066435D02*
X129754743Y-86039497D01*
X129754743Y-86039497D02*
X129700868Y-85985622D01*
X129700868Y-85985622D02*
X129673930Y-85904810D01*
X129673930Y-85904810D02*
X129673930Y-85850935D01*
X129673930Y-85850935D02*
X129700868Y-85770123D01*
X129700868Y-85770123D02*
X129835555Y-85635436D01*
X129835555Y-85635436D02*
X129943304Y-85581561D01*
X101953998Y-122730868D02*
X101873185Y-122757805D01*
X101873185Y-122757805D02*
X101792373Y-122838618D01*
X101792373Y-122838618D02*
X101738498Y-122946367D01*
X101738498Y-122946367D02*
X101738498Y-123054117D01*
X101738498Y-123054117D02*
X101765436Y-123134929D01*
X101765436Y-123134929D02*
X101846248Y-123269616D01*
X101846248Y-123269616D02*
X101927060Y-123350428D01*
X101927060Y-123350428D02*
X102061747Y-123431241D01*
X102061747Y-123431241D02*
X102142560Y-123458178D01*
X102142560Y-123458178D02*
X102250309Y-123458178D01*
X102250309Y-123458178D02*
X102358059Y-123404303D01*
X102358059Y-123404303D02*
X102411934Y-123350428D01*
X102411934Y-123350428D02*
X102465808Y-123242679D01*
X102465808Y-123242679D02*
X102465808Y-123188804D01*
X102465808Y-123188804D02*
X102277247Y-123000242D01*
X102277247Y-123000242D02*
X102169497Y-123107992D01*
X102762120Y-123000242D02*
X102196434Y-122434557D01*
X102196434Y-122434557D02*
X102411934Y-122219057D01*
X102411934Y-122219057D02*
X102492746Y-122192120D01*
X102492746Y-122192120D02*
X102546621Y-122192120D01*
X102546621Y-122192120D02*
X102627433Y-122219057D01*
X102627433Y-122219057D02*
X102708245Y-122299870D01*
X102708245Y-122299870D02*
X102735182Y-122380682D01*
X102735182Y-122380682D02*
X102735182Y-122434557D01*
X102735182Y-122434557D02*
X102708245Y-122515369D01*
X102708245Y-122515369D02*
X102492746Y-122730868D01*
X103624117Y-122138245D02*
X103300868Y-122461494D01*
X103462492Y-122299870D02*
X102896807Y-121734184D01*
X102896807Y-121734184D02*
X102923744Y-121868871D01*
X102923744Y-121868871D02*
X102923744Y-121976621D01*
X102923744Y-121976621D02*
X102896807Y-122057433D01*
X103327805Y-121410935D02*
X103327805Y-121357060D01*
X103327805Y-121357060D02*
X103354743Y-121276248D01*
X103354743Y-121276248D02*
X103489430Y-121141561D01*
X103489430Y-121141561D02*
X103570242Y-121114624D01*
X103570242Y-121114624D02*
X103624117Y-121114624D01*
X103624117Y-121114624D02*
X103704929Y-121141561D01*
X103704929Y-121141561D02*
X103758804Y-121195436D01*
X103758804Y-121195436D02*
X103812679Y-121303186D01*
X103812679Y-121303186D02*
X103812679Y-121949683D01*
X103812679Y-121949683D02*
X104162865Y-121599497D01*
X102523372Y-86891494D02*
X102442560Y-86918431D01*
X102442560Y-86918431D02*
X102361748Y-86999243D01*
X102361748Y-86999243D02*
X102307873Y-87106993D01*
X102307873Y-87106993D02*
X102307873Y-87214742D01*
X102307873Y-87214742D02*
X102334810Y-87295555D01*
X102334810Y-87295555D02*
X102415623Y-87430242D01*
X102415623Y-87430242D02*
X102496435Y-87511054D01*
X102496435Y-87511054D02*
X102631122Y-87591866D01*
X102631122Y-87591866D02*
X102711934Y-87618803D01*
X102711934Y-87618803D02*
X102819684Y-87618803D01*
X102819684Y-87618803D02*
X102927433Y-87564929D01*
X102927433Y-87564929D02*
X102981308Y-87511054D01*
X102981308Y-87511054D02*
X103035183Y-87403304D01*
X103035183Y-87403304D02*
X103035183Y-87349429D01*
X103035183Y-87349429D02*
X102846621Y-87160868D01*
X102846621Y-87160868D02*
X102738871Y-87268617D01*
X103331494Y-87160868D02*
X102765809Y-86595182D01*
X102765809Y-86595182D02*
X102981308Y-86379683D01*
X102981308Y-86379683D02*
X103062120Y-86352746D01*
X103062120Y-86352746D02*
X103115995Y-86352746D01*
X103115995Y-86352746D02*
X103196807Y-86379683D01*
X103196807Y-86379683D02*
X103277619Y-86460495D01*
X103277619Y-86460495D02*
X103304557Y-86541307D01*
X103304557Y-86541307D02*
X103304557Y-86595182D01*
X103304557Y-86595182D02*
X103277619Y-86675994D01*
X103277619Y-86675994D02*
X103062120Y-86891494D01*
X104193491Y-86298871D02*
X103870242Y-86622120D01*
X104031867Y-86460495D02*
X103466181Y-85894810D01*
X103466181Y-85894810D02*
X103493119Y-86029497D01*
X103493119Y-86029497D02*
X103493119Y-86137246D01*
X103493119Y-86137246D02*
X103466181Y-86218059D01*
X102099998Y-117650868D02*
X102019185Y-117677805D01*
X102019185Y-117677805D02*
X101938373Y-117758618D01*
X101938373Y-117758618D02*
X101884498Y-117866367D01*
X101884498Y-117866367D02*
X101884498Y-117974117D01*
X101884498Y-117974117D02*
X101911436Y-118054929D01*
X101911436Y-118054929D02*
X101992248Y-118189616D01*
X101992248Y-118189616D02*
X102073060Y-118270428D01*
X102073060Y-118270428D02*
X102207747Y-118351241D01*
X102207747Y-118351241D02*
X102288560Y-118378178D01*
X102288560Y-118378178D02*
X102396309Y-118378178D01*
X102396309Y-118378178D02*
X102504059Y-118324303D01*
X102504059Y-118324303D02*
X102557934Y-118270428D01*
X102557934Y-118270428D02*
X102611808Y-118162679D01*
X102611808Y-118162679D02*
X102611808Y-118108804D01*
X102611808Y-118108804D02*
X102423247Y-117920242D01*
X102423247Y-117920242D02*
X102315497Y-118027992D01*
X102908120Y-117920242D02*
X102342434Y-117354557D01*
X102342434Y-117354557D02*
X102557934Y-117139057D01*
X102557934Y-117139057D02*
X102638746Y-117112120D01*
X102638746Y-117112120D02*
X102692621Y-117112120D01*
X102692621Y-117112120D02*
X102773433Y-117139057D01*
X102773433Y-117139057D02*
X102854245Y-117219870D01*
X102854245Y-117219870D02*
X102881182Y-117300682D01*
X102881182Y-117300682D02*
X102881182Y-117354557D01*
X102881182Y-117354557D02*
X102854245Y-117435369D01*
X102854245Y-117435369D02*
X102638746Y-117650868D01*
X103770117Y-117058245D02*
X103446868Y-117381494D01*
X103608492Y-117219870D02*
X103042807Y-116654184D01*
X103042807Y-116654184D02*
X103069744Y-116788871D01*
X103069744Y-116788871D02*
X103069744Y-116896621D01*
X103069744Y-116896621D02*
X103042807Y-116977433D01*
X103554618Y-116142373D02*
X103608492Y-116088499D01*
X103608492Y-116088499D02*
X103689305Y-116061561D01*
X103689305Y-116061561D02*
X103743179Y-116061561D01*
X103743179Y-116061561D02*
X103823992Y-116088499D01*
X103823992Y-116088499D02*
X103958679Y-116169311D01*
X103958679Y-116169311D02*
X104093366Y-116303998D01*
X104093366Y-116303998D02*
X104174178Y-116438685D01*
X104174178Y-116438685D02*
X104201115Y-116519497D01*
X104201115Y-116519497D02*
X104201115Y-116573372D01*
X104201115Y-116573372D02*
X104174178Y-116654184D01*
X104174178Y-116654184D02*
X104120303Y-116708059D01*
X104120303Y-116708059D02*
X104039491Y-116734996D01*
X104039491Y-116734996D02*
X103985616Y-116734996D01*
X103985616Y-116734996D02*
X103904804Y-116708059D01*
X103904804Y-116708059D02*
X103770117Y-116627247D01*
X103770117Y-116627247D02*
X103635430Y-116492560D01*
X103635430Y-116492560D02*
X103554618Y-116357873D01*
X103554618Y-116357873D02*
X103527680Y-116277060D01*
X103527680Y-116277060D02*
X103527680Y-116223186D01*
X103527680Y-116223186D02*
X103554618Y-116142373D01*
X128948651Y-110313710D02*
X128490716Y-110232898D01*
X128625403Y-110636959D02*
X128059717Y-110071274D01*
X128059717Y-110071274D02*
X128275216Y-109855775D01*
X128275216Y-109855775D02*
X128356029Y-109828837D01*
X128356029Y-109828837D02*
X128409903Y-109828837D01*
X128409903Y-109828837D02*
X128490716Y-109855775D01*
X128490716Y-109855775D02*
X128571528Y-109936587D01*
X128571528Y-109936587D02*
X128598465Y-110017399D01*
X128598465Y-110017399D02*
X128598465Y-110071274D01*
X128598465Y-110071274D02*
X128571528Y-110152086D01*
X128571528Y-110152086D02*
X128356029Y-110367585D01*
X128625403Y-109505588D02*
X129083338Y-109963524D01*
X129083338Y-109963524D02*
X129164151Y-109990462D01*
X129164151Y-109990462D02*
X129218025Y-109990462D01*
X129218025Y-109990462D02*
X129298838Y-109963524D01*
X129298838Y-109963524D02*
X129406587Y-109855775D01*
X129406587Y-109855775D02*
X129433525Y-109774962D01*
X129433525Y-109774962D02*
X129433525Y-109721088D01*
X129433525Y-109721088D02*
X129406587Y-109640275D01*
X129406587Y-109640275D02*
X128948651Y-109182340D01*
X129783711Y-109478651D02*
X129218025Y-108912966D01*
X129218025Y-108912966D02*
X130106959Y-109155402D01*
X130106959Y-109155402D02*
X129541274Y-108589717D01*
X128207998Y-104960868D02*
X128127185Y-104987805D01*
X128127185Y-104987805D02*
X128046373Y-105068618D01*
X128046373Y-105068618D02*
X127992498Y-105176367D01*
X127992498Y-105176367D02*
X127992498Y-105284117D01*
X127992498Y-105284117D02*
X128019436Y-105364929D01*
X128019436Y-105364929D02*
X128100248Y-105499616D01*
X128100248Y-105499616D02*
X128181060Y-105580428D01*
X128181060Y-105580428D02*
X128315747Y-105661241D01*
X128315747Y-105661241D02*
X128396560Y-105688178D01*
X128396560Y-105688178D02*
X128504309Y-105688178D01*
X128504309Y-105688178D02*
X128612059Y-105634303D01*
X128612059Y-105634303D02*
X128665934Y-105580428D01*
X128665934Y-105580428D02*
X128719808Y-105472679D01*
X128719808Y-105472679D02*
X128719808Y-105418804D01*
X128719808Y-105418804D02*
X128531247Y-105230242D01*
X128531247Y-105230242D02*
X128423497Y-105337992D01*
X129016120Y-105230242D02*
X128450434Y-104664557D01*
X128450434Y-104664557D02*
X128665934Y-104449057D01*
X128665934Y-104449057D02*
X128746746Y-104422120D01*
X128746746Y-104422120D02*
X128800621Y-104422120D01*
X128800621Y-104422120D02*
X128881433Y-104449057D01*
X128881433Y-104449057D02*
X128962245Y-104529870D01*
X128962245Y-104529870D02*
X128989182Y-104610682D01*
X128989182Y-104610682D02*
X128989182Y-104664557D01*
X128989182Y-104664557D02*
X128962245Y-104745369D01*
X128962245Y-104745369D02*
X128746746Y-104960868D01*
X129043057Y-104179683D02*
X129043057Y-104125809D01*
X129043057Y-104125809D02*
X129069995Y-104044996D01*
X129069995Y-104044996D02*
X129204682Y-103910309D01*
X129204682Y-103910309D02*
X129285494Y-103883372D01*
X129285494Y-103883372D02*
X129339369Y-103883372D01*
X129339369Y-103883372D02*
X129420181Y-103910309D01*
X129420181Y-103910309D02*
X129474056Y-103964184D01*
X129474056Y-103964184D02*
X129527930Y-104071934D01*
X129527930Y-104071934D02*
X129527930Y-104718431D01*
X129527930Y-104718431D02*
X129878117Y-104368245D01*
X129500993Y-103613998D02*
X129878117Y-103236874D01*
X129878117Y-103236874D02*
X130201366Y-104044996D01*
X140383333Y-94534819D02*
X140050000Y-94058628D01*
X139811905Y-94534819D02*
X139811905Y-93534819D01*
X139811905Y-93534819D02*
X140192857Y-93534819D01*
X140192857Y-93534819D02*
X140288095Y-93582438D01*
X140288095Y-93582438D02*
X140335714Y-93630057D01*
X140335714Y-93630057D02*
X140383333Y-93725295D01*
X140383333Y-93725295D02*
X140383333Y-93868152D01*
X140383333Y-93868152D02*
X140335714Y-93963390D01*
X140335714Y-93963390D02*
X140288095Y-94011009D01*
X140288095Y-94011009D02*
X140192857Y-94058628D01*
X140192857Y-94058628D02*
X139811905Y-94058628D01*
X140716667Y-93534819D02*
X141335714Y-93534819D01*
X141335714Y-93534819D02*
X141002381Y-93915771D01*
X141002381Y-93915771D02*
X141145238Y-93915771D01*
X141145238Y-93915771D02*
X141240476Y-93963390D01*
X141240476Y-93963390D02*
X141288095Y-94011009D01*
X141288095Y-94011009D02*
X141335714Y-94106247D01*
X141335714Y-94106247D02*
X141335714Y-94344342D01*
X141335714Y-94344342D02*
X141288095Y-94439580D01*
X141288095Y-94439580D02*
X141240476Y-94487200D01*
X141240476Y-94487200D02*
X141145238Y-94534819D01*
X141145238Y-94534819D02*
X140859524Y-94534819D01*
X140859524Y-94534819D02*
X140764286Y-94487200D01*
X140764286Y-94487200D02*
X140716667Y-94439580D01*
X141534819Y-112616666D02*
X141058628Y-112949999D01*
X141534819Y-113188094D02*
X140534819Y-113188094D01*
X140534819Y-113188094D02*
X140534819Y-112807142D01*
X140534819Y-112807142D02*
X140582438Y-112711904D01*
X140582438Y-112711904D02*
X140630057Y-112664285D01*
X140630057Y-112664285D02*
X140725295Y-112616666D01*
X140725295Y-112616666D02*
X140868152Y-112616666D01*
X140868152Y-112616666D02*
X140963390Y-112664285D01*
X140963390Y-112664285D02*
X141011009Y-112711904D01*
X141011009Y-112711904D02*
X141058628Y-112807142D01*
X141058628Y-112807142D02*
X141058628Y-113188094D01*
X140630057Y-112235713D02*
X140582438Y-112188094D01*
X140582438Y-112188094D02*
X140534819Y-112092856D01*
X140534819Y-112092856D02*
X140534819Y-111854761D01*
X140534819Y-111854761D02*
X140582438Y-111759523D01*
X140582438Y-111759523D02*
X140630057Y-111711904D01*
X140630057Y-111711904D02*
X140725295Y-111664285D01*
X140725295Y-111664285D02*
X140820533Y-111664285D01*
X140820533Y-111664285D02*
X140963390Y-111711904D01*
X140963390Y-111711904D02*
X141534819Y-112283332D01*
X141534819Y-112283332D02*
X141534819Y-111664285D01*
X136534819Y-112616666D02*
X136058628Y-112949999D01*
X136534819Y-113188094D02*
X135534819Y-113188094D01*
X135534819Y-113188094D02*
X135534819Y-112807142D01*
X135534819Y-112807142D02*
X135582438Y-112711904D01*
X135582438Y-112711904D02*
X135630057Y-112664285D01*
X135630057Y-112664285D02*
X135725295Y-112616666D01*
X135725295Y-112616666D02*
X135868152Y-112616666D01*
X135868152Y-112616666D02*
X135963390Y-112664285D01*
X135963390Y-112664285D02*
X136011009Y-112711904D01*
X136011009Y-112711904D02*
X136058628Y-112807142D01*
X136058628Y-112807142D02*
X136058628Y-113188094D01*
X136534819Y-111664285D02*
X136534819Y-112235713D01*
X136534819Y-111949999D02*
X135534819Y-111949999D01*
X135534819Y-111949999D02*
X135677676Y-112045237D01*
X135677676Y-112045237D02*
X135772914Y-112140475D01*
X135772914Y-112140475D02*
X135820533Y-112235713D01*
X145089819Y-122758094D02*
X144089819Y-122758094D01*
X144089819Y-122758094D02*
X144089819Y-122519999D01*
X144089819Y-122519999D02*
X144137438Y-122377142D01*
X144137438Y-122377142D02*
X144232676Y-122281904D01*
X144232676Y-122281904D02*
X144327914Y-122234285D01*
X144327914Y-122234285D02*
X144518390Y-122186666D01*
X144518390Y-122186666D02*
X144661247Y-122186666D01*
X144661247Y-122186666D02*
X144851723Y-122234285D01*
X144851723Y-122234285D02*
X144946961Y-122281904D01*
X144946961Y-122281904D02*
X145042200Y-122377142D01*
X145042200Y-122377142D02*
X145089819Y-122519999D01*
X145089819Y-122519999D02*
X145089819Y-122758094D01*
X144185057Y-121805713D02*
X144137438Y-121758094D01*
X144137438Y-121758094D02*
X144089819Y-121662856D01*
X144089819Y-121662856D02*
X144089819Y-121424761D01*
X144089819Y-121424761D02*
X144137438Y-121329523D01*
X144137438Y-121329523D02*
X144185057Y-121281904D01*
X144185057Y-121281904D02*
X144280295Y-121234285D01*
X144280295Y-121234285D02*
X144375533Y-121234285D01*
X144375533Y-121234285D02*
X144518390Y-121281904D01*
X144518390Y-121281904D02*
X145089819Y-121853332D01*
X145089819Y-121853332D02*
X145089819Y-121234285D01*
X140634761Y-107890057D02*
X140539523Y-107842438D01*
X140539523Y-107842438D02*
X140444285Y-107747200D01*
X140444285Y-107747200D02*
X140301428Y-107604342D01*
X140301428Y-107604342D02*
X140206190Y-107556723D01*
X140206190Y-107556723D02*
X140110952Y-107556723D01*
X140158571Y-107794819D02*
X140063333Y-107747200D01*
X140063333Y-107747200D02*
X139968095Y-107651961D01*
X139968095Y-107651961D02*
X139920476Y-107461485D01*
X139920476Y-107461485D02*
X139920476Y-107128152D01*
X139920476Y-107128152D02*
X139968095Y-106937676D01*
X139968095Y-106937676D02*
X140063333Y-106842438D01*
X140063333Y-106842438D02*
X140158571Y-106794819D01*
X140158571Y-106794819D02*
X140349047Y-106794819D01*
X140349047Y-106794819D02*
X140444285Y-106842438D01*
X140444285Y-106842438D02*
X140539523Y-106937676D01*
X140539523Y-106937676D02*
X140587142Y-107128152D01*
X140587142Y-107128152D02*
X140587142Y-107461485D01*
X140587142Y-107461485D02*
X140539523Y-107651961D01*
X140539523Y-107651961D02*
X140444285Y-107747200D01*
X140444285Y-107747200D02*
X140349047Y-107794819D01*
X140349047Y-107794819D02*
X140158571Y-107794819D01*
X141539523Y-107794819D02*
X140968095Y-107794819D01*
X141253809Y-107794819D02*
X141253809Y-106794819D01*
X141253809Y-106794819D02*
X141158571Y-106937676D01*
X141158571Y-106937676D02*
X141063333Y-107032914D01*
X141063333Y-107032914D02*
X140968095Y-107080533D01*
D11*
%TO.C,U1*%
X126610000Y-113270000D02*
X126610000Y-113670000D01*
X105610000Y-85270000D02*
X105610000Y-85670000D01*
X105610000Y-87870000D02*
X105610000Y-88270000D01*
X126610000Y-118370000D02*
X126610000Y-118770000D01*
X112410000Y-133870000D02*
X105610000Y-133870000D01*
X126610000Y-108170000D02*
X126610000Y-108570000D01*
X126610000Y-131070000D02*
X126610000Y-131470000D01*
X126610000Y-85270000D02*
X126610000Y-85670000D01*
X108617000Y-85537000D02*
X108617000Y-82870000D01*
X126610000Y-103070000D02*
X126610000Y-103470000D01*
X105610000Y-82870000D02*
X126610000Y-82870000D01*
X105610000Y-128470000D02*
X105610000Y-128870000D01*
X105610000Y-105670000D02*
X105610000Y-106070000D01*
X105610000Y-131070000D02*
X105610000Y-131470000D01*
X105610000Y-92970000D02*
X105610000Y-93370000D01*
X105610000Y-103070000D02*
X105610000Y-103470000D01*
X126610000Y-105670000D02*
X126610000Y-106070000D01*
X126610000Y-133870000D02*
X119810000Y-133870000D01*
X126610000Y-92970000D02*
X126610000Y-93370000D01*
X105610000Y-115770000D02*
X105610000Y-116170000D01*
X105610000Y-85537000D02*
X108617000Y-85537000D01*
X105610000Y-100570000D02*
X105610000Y-100970000D01*
X105610000Y-113270000D02*
X105610000Y-113670000D01*
X114610000Y-133870000D02*
X115010000Y-133870000D01*
X105610000Y-95470000D02*
X105610000Y-95870000D01*
X126610000Y-87870000D02*
X126610000Y-88270000D01*
X105610000Y-123470000D02*
X105610000Y-123870000D01*
X117210000Y-133870000D02*
X117610000Y-133870000D01*
X126610000Y-95470000D02*
X126610000Y-95870000D01*
X105610000Y-118370000D02*
X105610000Y-118770000D01*
X126610000Y-110670000D02*
X126610000Y-111070000D01*
X105610000Y-97970000D02*
X105610000Y-98370000D01*
X105610000Y-108170000D02*
X105610000Y-108570000D01*
X105610000Y-125970000D02*
X105610000Y-126370000D01*
X105610000Y-120870000D02*
X105610000Y-121270000D01*
X126610000Y-115770000D02*
X126610000Y-116170000D01*
X126610000Y-97970000D02*
X126610000Y-98370000D01*
X126610000Y-125970000D02*
X126610000Y-126370000D01*
X126610000Y-100570000D02*
X126610000Y-100970000D01*
X105610000Y-82870000D02*
X105610000Y-83170000D01*
X126610000Y-128470000D02*
X126610000Y-128870000D01*
X126610000Y-120870000D02*
X126610000Y-121270000D01*
X126610000Y-90370000D02*
X126610000Y-90770000D01*
X105610000Y-110670000D02*
X105610000Y-111070000D01*
X126610000Y-82870000D02*
X126610000Y-83170000D01*
X105610000Y-90370000D02*
X105610000Y-90770000D01*
X126610000Y-123470000D02*
X126610000Y-123870000D01*
%TO.C,R3*%
X138930000Y-96000000D02*
G75*
G02*
X137090000Y-96000000I-920000J0D01*
G01*
X137090000Y-96000000D02*
G75*
G02*
X138930000Y-96000000I920000J0D01*
G01*
X138930000Y-96000000D02*
X142090000Y-96000000D01*
%TO.C,R2*%
X143920000Y-114990000D02*
G75*
G02*
X142080000Y-114990000I-920000J0D01*
G01*
X142080000Y-114990000D02*
G75*
G02*
X143920000Y-114990000I920000J0D01*
G01*
X143000000Y-114070000D02*
X143000000Y-110910000D01*
%TO.C,R1*%
X138920000Y-114990000D02*
G75*
G02*
X137080000Y-114990000I-920000J0D01*
G01*
X137080000Y-114990000D02*
G75*
G02*
X138920000Y-114990000I920000J0D01*
G01*
X138000000Y-114070000D02*
X138000000Y-110910000D01*
%TO.C,D2*%
X139745000Y-123730000D02*
X141465000Y-123730000D01*
X141465000Y-123730000D02*
X141465000Y-120310000D01*
X141465000Y-123290000D02*
X141465000Y-123290000D01*
X141465000Y-123290000D02*
X141595000Y-123290000D01*
X141595000Y-123290000D02*
X141465000Y-123290000D01*
X141595000Y-123290000D02*
X141595000Y-123290000D01*
X138345000Y-122980000D02*
X139745000Y-122980000D01*
X139745000Y-122980000D02*
X139745000Y-121060000D01*
X138345000Y-121060000D02*
X138345000Y-122980000D01*
X139745000Y-121060000D02*
X138345000Y-121060000D01*
X141465000Y-120750000D02*
X141465000Y-120750000D01*
X141465000Y-120750000D02*
X141595000Y-120750000D01*
X141595000Y-120750000D02*
X141465000Y-120750000D01*
X141595000Y-120750000D02*
X141595000Y-120750000D01*
X141465000Y-120550000D02*
X139745000Y-120550000D01*
X141465000Y-120430000D02*
X139745000Y-120430000D01*
X139745000Y-120310000D02*
X139745000Y-123730000D01*
X141465000Y-120310000D02*
X139745000Y-120310000D01*
%TO.C,Q1*%
X140730000Y-106380000D02*
G75*
G02*
X138891522Y-101941522I0J2600000D01*
G01*
X142568478Y-101941522D02*
G75*
G02*
X140730000Y-106380000I-1838478J-1838478D01*
G01*
X142530000Y-101930000D02*
X138930000Y-101930000D01*
%TD*%
M02*
